<svg id="svg" version="1.1" xmlns="http://www.w3.org/2000/svg" xmlns:xlink="http://www.w3.org/1999/xlink" width="400" height="400" viewBox="0, 0, 400,400"><g id="svgg"><path id="path0" d="M303.328 91.100 C 302.245 92.145,298.413 97.410,294.812 102.800 C 291.212 108.190,288.143 112.690,287.993 112.800 C 287.843 112.910,287.648 113.180,287.560 113.400 C 287.230 114.224,279.857 125.005,279.535 125.133 C 279.351 125.207,279.200 125.488,279.200 125.758 C 279.200 126.028,278.855 126.619,278.434 127.071 C 278.013 127.523,274.324 132.912,270.236 139.047 C 266.148 145.181,261.983 151.370,260.981 152.800 C 259.978 154.230,258.815 156.138,258.396 157.039 C 257.978 157.941,256.867 159.537,255.929 160.586 C 254.002 162.738,253.089 164.036,248.303 171.421 C 246.442 174.293,243.853 177.803,242.549 179.221 C 239.994 182.000,238.596 183.782,236.400 187.058 C 235.630 188.207,234.280 189.928,233.400 190.884 C 231.968 192.438,229.238 195.678,227.601 197.767 C 225.090 200.970,222.383 203.219,221.565 202.781 C 220.640 202.286,220.653 188.215,221.588 177.200 C 221.803 174.670,222.169 164.680,222.401 155.000 C 222.632 145.320,223.001 135.870,223.220 134.000 C 223.438 132.130,223.787 126.370,223.995 121.200 C 224.203 116.030,224.489 110.511,224.630 108.937 C 224.793 107.117,224.713 105.549,224.412 104.637 L 223.938 103.200 220.944 103.200 C 219.297 103.200,215.396 103.030,212.275 102.822 C 197.726 101.853,198.178 101.845,196.857 103.089 L 195.675 104.200 196.063 108.800 C 196.279 111.364,196.530 139.341,196.629 172.000 C 196.815 233.063,197.253 269.288,197.949 281.200 C 198.174 285.050,198.368 291.502,198.379 295.538 C 198.397 301.688,198.510 303.062,199.077 304.023 L 199.754 305.169 211.973 305.084 L 224.193 305.000 224.853 303.601 C 225.674 301.861,225.975 298.497,226.445 285.800 C 226.960 271.871,227.487 262.492,228.021 257.800 C 228.271 255.600,228.562 252.405,228.668 250.700 C 228.883 247.242,229.002 247.143,231.462 248.363 C 232.308 248.782,234.704 249.972,236.788 251.008 C 240.675 252.939,243.985 255.056,246.330 257.110 C 247.805 258.402,252.986 261.600,253.605 261.600 C 253.822 261.600,254.000 261.780,254.000 262.000 C 254.000 262.220,254.188 262.400,254.418 262.400 C 254.648 262.400,256.133 263.260,257.718 264.312 C 259.303 265.364,261.302 266.579,262.159 267.012 C 263.017 267.445,270.178 272.030,278.074 277.200 C 285.969 282.370,293.866 287.500,295.622 288.600 C 297.378 289.700,299.397 291.095,300.108 291.699 C 300.818 292.304,301.610 292.799,301.867 292.799 C 302.123 292.800,302.393 292.935,302.467 293.100 C 302.591 293.379,303.230 293.708,308.300 296.095 C 309.345 296.587,310.290 297.082,310.400 297.195 C 310.657 297.458,315.048 299.622,318.400 301.137 C 319.830 301.783,321.450 302.745,322.000 303.276 C 322.550 303.806,324.170 305.027,325.600 305.990 C 327.030 306.952,328.290 307.860,328.400 308.007 C 328.842 308.598,332.489 311.200,332.875 311.200 C 333.433 311.200,337.454 306.990,339.631 304.125 C 340.603 302.846,341.493 301.710,341.609 301.600 C 344.574 298.797,346.998 294.844,346.637 293.404 C 346.299 292.058,341.049 286.934,337.400 284.389 C 335.860 283.314,334.150 282.071,333.600 281.627 C 333.050 281.182,332.452 280.814,332.272 280.809 C 331.875 280.798,328.912 278.763,327.800 277.738 C 327.359 277.332,326.369 276.530,325.600 275.955 C 324.830 275.380,323.578 274.328,322.817 273.617 C 322.057 272.906,319.822 270.946,317.852 269.262 C 315.881 267.578,312.453 264.619,310.234 262.688 C 308.015 260.756,305.300 258.729,304.200 258.183 C 303.100 257.638,301.092 256.137,299.739 254.847 C 298.385 253.558,296.239 251.909,294.971 251.184 C 293.157 250.146,286.190 244.729,285.200 243.587 C 285.090 243.460,283.470 242.141,281.600 240.655 C 279.730 239.169,277.930 237.734,277.599 237.466 C 277.269 237.197,275.861 236.263,274.471 235.389 C 273.081 234.515,270.832 233.100,269.472 232.245 C 267.055 230.723,262.850 227.411,259.943 224.739 C 259.142 224.002,257.162 222.410,255.543 221.200 C 252.418 218.864,248.000 214.613,248.000 213.941 C 248.000 213.720,248.772 212.518,249.716 211.270 C 250.660 210.021,251.767 208.469,252.177 207.821 C 252.587 207.172,255.915 203.662,259.572 200.021 C 265.895 193.726,269.201 189.988,273.212 184.600 C 274.194 183.280,275.097 182.110,275.218 182.000 C 275.339 181.890,275.871 181.170,276.400 180.400 C 276.929 179.630,277.465 178.910,277.591 178.800 C 277.717 178.690,278.446 177.791,279.210 176.801 C 279.975 175.812,280.902 174.642,281.271 174.201 C 281.639 173.761,283.404 171.600,285.191 169.400 C 286.979 167.200,288.665 165.126,288.939 164.791 C 289.212 164.456,290.048 163.286,290.795 162.191 C 291.542 161.096,292.299 160.140,292.477 160.067 C 292.655 159.993,292.800 159.712,292.800 159.442 C 292.800 159.172,293.115 158.593,293.500 158.155 C 294.172 157.391,294.406 157.023,295.982 154.245 C 298.815 149.251,301.712 144.830,303.676 142.503 C 304.278 141.789,305.919 138.893,307.322 136.068 C 308.725 133.242,310.441 130.103,311.136 129.093 C 311.831 128.082,312.400 127.146,312.400 127.011 C 312.400 126.876,312.588 126.549,312.818 126.283 C 313.047 126.017,315.653 122.020,318.608 117.400 C 321.563 112.780,324.120 108.811,324.291 108.580 C 326.962 104.950,325.290 102.139,317.235 96.717 C 314.246 94.704,311.710 92.954,311.600 92.828 C 311.490 92.702,310.905 92.344,310.300 92.032 C 309.695 91.720,309.200 91.315,309.200 91.132 C 309.200 90.950,308.975 90.796,308.700 90.791 C 308.425 90.786,307.750 90.430,307.200 90.000 C 305.790 88.897,305.536 88.969,303.328 91.100 M56.219 99.700 C 55.688 102.235,55.192 114.044,54.829 132.800 C 54.484 150.586,53.994 160.638,53.428 161.555 C 53.294 161.771,53.400 162.815,53.662 163.874 C 54.002 165.247,54.161 173.155,54.215 191.400 C 54.256 205.480,54.501 221.363,54.758 226.695 C 55.118 234.177,55.116 237.235,54.747 240.095 C 54.484 242.133,54.292 246.050,54.321 248.800 C 54.350 251.550,54.434 263.248,54.508 274.797 L 54.641 295.793 56.221 296.092 C 58.745 296.570,63.877 297.213,68.200 297.593 C 74.818 298.175,78.125 298.665,79.600 299.285 C 81.937 300.266,84.496 300.369,97.200 299.989 C 108.780 299.643,111.970 299.398,118.000 298.392 C 119.430 298.154,121.770 297.786,123.200 297.574 C 124.630 297.362,126.880 297.012,128.200 296.794 C 129.520 296.577,131.950 296.220,133.600 296.000 C 138.527 295.343,139.596 295.129,139.827 294.756 C 139.948 294.560,140.369 294.400,140.762 294.400 C 141.155 294.400,142.000 294.150,142.639 293.844 C 143.277 293.538,144.520 292.975,145.400 292.594 C 146.280 292.212,148.114 291.383,149.475 290.750 C 150.836 290.118,152.059 289.600,152.192 289.600 C 152.617 289.600,155.706 286.735,158.600 283.659 C 160.140 282.021,162.690 279.388,164.266 277.806 C 166.874 275.190,169.291 271.903,171.553 267.900 C 172.019 267.075,172.788 265.725,173.262 264.900 C 176.986 258.415,177.857 254.685,177.720 245.800 C 177.594 237.679,177.014 230.753,176.330 229.200 C 175.047 226.290,174.800 225.533,174.800 224.508 C 174.800 222.672,173.150 218.701,171.161 215.747 C 170.104 214.177,169.125 212.439,168.985 211.883 C 168.698 210.739,165.906 207.329,163.921 205.698 C 163.194 205.101,162.510 204.506,162.400 204.375 C 161.653 203.488,152.753 197.851,149.800 196.395 C 147.820 195.419,146.140 194.481,146.067 194.310 C 145.993 194.140,145.599 194.000,145.190 194.000 C 144.782 194.000,144.355 193.850,144.242 193.668 C 144.129 193.485,142.760 193.094,141.200 192.800 C 139.640 192.506,138.271 192.115,138.158 191.932 C 138.045 191.750,137.519 191.600,136.989 191.600 C 136.458 191.600,135.405 191.252,134.647 190.827 C 133.890 190.401,132.490 189.839,131.535 189.576 C 129.045 188.892,127.290 188.070,127.097 187.496 C 126.921 186.973,130.437 185.244,131.735 185.216 C 133.675 185.174,142.969 177.384,146.072 173.200 C 146.643 172.430,147.582 171.260,148.158 170.600 C 152.223 165.946,155.189 153.588,155.197 141.277 C 155.200 136.212,154.946 133.478,153.927 127.600 C 153.093 122.792,146.835 112.455,144.729 112.406 C 144.579 112.403,144.212 112.175,143.913 111.900 C 143.614 111.625,142.926 111.141,142.385 110.824 C 138.585 108.602,135.951 106.883,134.400 105.611 C 131.988 103.634,131.961 103.621,128.672 102.809 C 127.092 102.420,124.540 101.725,123.000 101.267 C 120.497 100.521,114.741 99.797,103.200 98.775 C 101.110 98.590,89.745 98.430,77.945 98.419 L 56.491 98.400 56.219 99.700 M84.452 130.028 C 85.029 130.337,85.405 130.328,85.806 129.995 C 86.493 129.425,90.325 130.179,92.308 131.274 C 96.263 133.456,99.053 138.137,99.774 143.800 C 99.915 144.900,100.235 146.649,100.487 147.686 C 101.117 150.287,100.489 152.798,97.927 157.921 C 94.259 165.254,92.025 166.800,85.098 166.800 L 80.565 166.800 80.043 164.447 C 79.426 161.668,79.912 132.198,80.609 130.100 C 80.812 129.488,83.354 129.440,84.452 130.028 M100.600 204.634 C 101.328 205.015,103.660 205.404,106.528 205.623 C 111.270 205.986,112.215 206.164,117.400 207.678 C 126.740 210.404,131.994 215.027,133.453 221.800 C 135.985 233.551,134.977 248.523,131.124 256.400 C 126.675 265.496,123.554 268.165,114.800 270.363 C 105.003 272.822,80.075 273.420,77.470 271.258 C 76.419 270.386,75.867 227.120,76.840 221.845 C 77.038 220.770,77.200 216.435,77.200 212.212 C 77.200 207.989,77.320 204.413,77.467 204.267 C 78.090 203.643,99.352 203.980,100.600 204.634 " stroke="none" fill="#fbfbfc" fill-rule="evenodd"></path><path id="path1" d="M30.300 0.290 C 29.475 0.377,28.800 0.617,28.800 0.824 C 28.800 1.031,28.271 1.200,27.624 1.200 C 26.977 1.200,26.336 1.380,26.200 1.600 C 26.064 1.820,25.513 2.000,24.976 2.000 C 24.439 2.000,24.000 2.180,24.000 2.400 C 24.000 2.620,23.640 2.800,23.200 2.800 C 22.760 2.800,22.400 2.980,22.400 3.200 C 22.400 3.420,22.040 3.600,21.600 3.600 C 21.160 3.600,20.800 3.780,20.800 4.000 C 20.800 4.220,20.440 4.400,20.000 4.400 C 19.560 4.400,19.200 4.580,19.200 4.800 C 19.200 5.020,18.912 5.200,18.560 5.200 C 18.209 5.200,17.417 5.740,16.800 6.400 C 16.183 7.060,15.471 7.600,15.216 7.600 C 14.725 7.600,11.906 10.093,9.839 12.356 C 9.158 13.102,8.375 13.944,8.100 14.228 C 7.825 14.511,7.600 14.953,7.600 15.211 C 7.600 15.468,7.060 16.183,6.400 16.800 C 5.740 17.417,5.200 18.209,5.200 18.560 C 5.200 18.912,5.020 19.200,4.800 19.200 C 4.580 19.200,4.400 19.560,4.400 20.000 C 4.400 20.440,4.220 20.800,4.000 20.800 C 3.780 20.800,3.600 21.160,3.600 21.600 C 3.600 22.040,3.420 22.400,3.200 22.400 C 2.980 22.400,2.800 22.760,2.800 23.200 C 2.800 23.640,2.620 24.000,2.400 24.000 C 2.180 24.000,2.000 24.439,2.000 24.976 C 2.000 25.513,1.820 26.064,1.600 26.200 C 1.380 26.336,1.200 26.962,1.200 27.590 C 1.200 28.219,0.975 28.808,0.700 28.900 C -0.036 29.145,-0.036 370.524,0.700 371.260 C 0.975 371.535,1.200 372.163,1.200 372.656 C 1.200 373.149,1.380 373.664,1.600 373.800 C 1.820 373.936,2.000 374.487,2.000 375.024 C 2.000 375.561,2.180 376.000,2.400 376.000 C 2.620 376.000,2.800 376.360,2.800 376.800 C 2.800 377.240,2.980 377.600,3.200 377.600 C 3.420 377.600,3.600 377.960,3.600 378.400 C 3.600 378.840,3.780 379.200,4.000 379.200 C 4.220 379.200,4.400 379.560,4.400 380.000 C 4.400 380.440,4.580 380.800,4.800 380.800 C 5.020 380.800,5.200 381.088,5.200 381.440 C 5.200 381.791,5.740 382.583,6.400 383.200 C 7.060 383.817,7.600 384.529,7.600 384.784 C 7.600 385.167,9.392 387.297,11.444 389.355 C 13.002 390.917,14.845 392.400,15.229 392.400 C 15.476 392.400,16.183 392.940,16.800 393.600 C 17.417 394.260,18.209 394.800,18.560 394.800 C 18.912 394.800,19.200 394.980,19.200 395.200 C 19.200 395.420,19.560 395.600,20.000 395.600 C 20.440 395.600,20.800 395.780,20.800 396.000 C 20.800 396.220,21.160 396.400,21.600 396.400 C 22.040 396.400,22.400 396.580,22.400 396.800 C 22.400 397.020,22.760 397.200,23.200 397.200 C 23.640 397.200,24.000 397.380,24.000 397.600 C 24.000 397.820,24.439 398.000,24.976 398.000 C 25.513 398.000,26.064 398.180,26.200 398.400 C 26.336 398.620,26.962 398.800,27.590 398.800 C 28.219 398.800,28.808 399.025,28.900 399.300 C 29.145 400.036,370.855 400.036,371.100 399.300 C 371.192 399.025,371.792 398.800,372.433 398.800 C 373.075 398.800,373.600 398.620,373.600 398.400 C 373.600 398.180,374.140 398.000,374.800 398.000 C 375.460 398.000,376.000 397.820,376.000 397.600 C 376.000 397.380,376.360 397.200,376.800 397.200 C 377.240 397.200,377.600 397.020,377.600 396.800 C 377.600 396.580,377.960 396.400,378.400 396.400 C 378.840 396.400,379.200 396.220,379.200 396.000 C 379.200 395.780,379.560 395.600,380.000 395.600 C 380.440 395.600,380.800 395.420,380.800 395.200 C 380.800 394.980,381.088 394.800,381.440 394.800 C 381.791 394.800,382.583 394.260,383.200 393.600 C 383.817 392.940,384.564 392.398,384.860 392.395 C 385.548 392.388,392.400 385.515,392.400 384.832 C 392.400 384.551,392.940 383.817,393.600 383.200 C 394.260 382.583,394.800 381.791,394.800 381.440 C 394.800 381.088,394.980 380.800,395.200 380.800 C 395.420 380.800,395.600 380.440,395.600 380.000 C 395.600 379.560,395.780 379.200,396.000 379.200 C 396.220 379.200,396.400 378.840,396.400 378.400 C 396.400 377.960,396.580 377.600,396.800 377.600 C 397.020 377.600,397.200 377.240,397.200 376.800 C 397.200 376.360,397.380 376.000,397.600 376.000 C 397.820 376.000,398.000 375.460,398.000 374.800 C 398.000 374.140,398.180 373.600,398.400 373.600 C 398.620 373.600,398.800 373.186,398.800 372.680 C 398.800 372.174,399.025 371.535,399.300 371.260 C 399.698 370.862,399.800 336.057,399.800 199.913 C 399.800 63.592,399.699 29.033,399.300 28.900 C 399.025 28.808,398.800 28.219,398.800 27.590 C 398.800 26.962,398.620 26.336,398.400 26.200 C 398.180 26.064,398.000 25.513,398.000 24.976 C 398.000 24.439,397.820 24.000,397.600 24.000 C 397.380 24.000,397.200 23.640,397.200 23.200 C 397.200 22.760,397.020 22.400,396.800 22.400 C 396.580 22.400,396.400 22.040,396.400 21.600 C 396.400 21.160,396.220 20.800,396.000 20.800 C 395.780 20.800,395.600 20.440,395.600 20.000 C 395.600 19.560,395.420 19.200,395.200 19.200 C 394.980 19.200,394.800 18.912,394.800 18.560 C 394.800 18.209,394.260 17.417,393.600 16.800 C 392.940 16.183,392.400 15.476,392.400 15.229 C 392.400 14.706,390.553 12.591,388.045 10.243 C 387.080 9.339,386.058 8.375,385.774 8.100 C 385.490 7.825,385.047 7.600,384.789 7.600 C 384.532 7.600,383.817 7.060,383.200 6.400 C 382.583 5.740,381.791 5.200,381.440 5.200 C 381.088 5.200,380.800 5.020,380.800 4.800 C 380.800 4.580,380.440 4.400,380.000 4.400 C 379.560 4.400,379.200 4.220,379.200 4.000 C 379.200 3.780,378.840 3.600,378.400 3.600 C 377.960 3.600,377.600 3.420,377.600 3.200 C 377.600 2.980,377.240 2.800,376.800 2.800 C 376.360 2.800,376.000 2.620,376.000 2.400 C 376.000 2.180,375.561 2.000,375.024 2.000 C 374.487 2.000,373.936 1.820,373.800 1.600 C 373.664 1.380,373.149 1.200,372.656 1.200 C 372.163 1.200,371.535 0.975,371.260 0.700 C 370.787 0.227,34.721 -0.177,30.300 0.290 M306.400 88.373 C 306.400 88.578,306.738 88.853,307.151 88.984 C 307.564 89.116,308.419 89.670,309.051 90.217 C 309.683 90.764,310.695 91.433,311.300 91.703 C 311.905 91.974,312.400 92.331,312.400 92.498 C 312.400 92.664,312.655 92.800,312.967 92.800 C 313.278 92.800,313.593 92.950,313.667 93.134 C 313.740 93.317,315.780 94.787,318.200 96.401 C 320.620 98.015,322.870 99.650,323.200 100.034 C 326.608 104.003,326.865 105.190,325.070 108.700 C 324.592 109.635,324.066 110.400,323.901 110.400 C 323.735 110.400,323.600 110.569,323.600 110.776 C 323.600 110.983,322.163 113.368,320.407 116.076 C 318.650 118.784,316.920 121.585,316.561 122.300 C 316.202 123.015,315.749 123.600,315.554 123.600 C 315.359 123.600,315.200 123.836,315.200 124.125 C 315.200 124.413,314.840 125.036,314.400 125.508 C 313.960 125.980,313.600 126.520,313.600 126.708 C 313.600 126.896,313.285 127.407,312.900 127.845 C 312.221 128.617,311.925 129.085,310.400 131.800 C 310.001 132.510,309.484 133.430,309.250 133.845 C 309.016 134.260,308.199 135.950,307.436 137.600 C 306.672 139.250,305.763 140.960,305.416 141.400 C 302.775 144.753,297.200 153.202,297.200 153.851 C 297.200 153.957,296.480 155.104,295.600 156.400 C 294.720 157.696,294.000 158.931,294.000 159.145 C 294.000 159.358,293.855 159.593,293.677 159.667 C 293.499 159.740,292.745 160.700,292.002 161.800 C 290.744 163.662,283.358 173.154,282.821 173.600 C 282.688 173.710,281.956 174.610,281.194 175.600 C 280.432 176.590,279.391 177.850,278.881 178.400 C 278.372 178.950,277.656 179.895,277.291 180.500 C 276.926 181.105,276.486 181.600,276.314 181.600 C 276.141 181.600,276.000 181.793,276.000 182.029 C 276.000 182.264,275.775 182.694,275.500 182.983 C 275.225 183.272,274.010 184.817,272.800 186.416 C 269.075 191.337,266.229 194.528,260.077 200.681 C 256.822 203.937,253.100 208.040,251.806 209.800 C 250.511 211.560,249.291 213.216,249.093 213.481 C 248.859 213.794,249.025 214.275,249.567 214.856 C 250.025 215.348,250.400 215.869,250.400 216.013 C 250.400 216.157,251.966 217.427,253.880 218.836 C 255.795 220.245,257.737 221.758,258.196 222.199 C 258.655 222.639,260.194 223.985,261.615 225.190 C 263.037 226.394,264.290 227.478,264.400 227.600 C 265.159 228.438,268.609 230.832,272.168 232.990 C 274.475 234.388,276.596 235.725,276.881 235.959 C 277.166 236.193,278.840 237.504,280.600 238.871 C 282.360 240.238,284.005 241.547,284.255 241.779 C 284.506 242.010,285.049 242.470,285.462 242.800 C 287.830 244.693,290.739 247.145,291.771 248.118 C 292.424 248.734,294.014 249.800,295.306 250.489 C 296.598 251.177,298.858 252.876,300.327 254.263 C 301.797 255.650,303.900 257.230,305.000 257.775 C 306.100 258.319,307.925 259.628,309.055 260.683 C 310.186 261.737,312.872 264.040,315.026 265.800 C 317.179 267.560,319.821 269.855,320.897 270.900 C 321.973 271.945,323.516 273.294,324.327 273.899 C 325.137 274.503,326.277 275.493,326.860 276.099 C 327.444 276.704,328.097 277.200,328.312 277.200 C 328.526 277.200,328.934 277.480,329.218 277.821 C 329.501 278.163,330.918 279.163,332.367 280.043 C 338.247 283.617,346.241 290.469,347.547 293.054 C 348.076 294.099,346.761 296.948,344.719 299.185 C 342.530 301.581,340.000 304.693,340.000 304.989 C 340.000 305.142,339.118 306.197,338.041 307.334 C 336.964 308.470,335.541 309.985,334.881 310.700 C 333.221 312.495,332.137 312.387,329.816 310.194 C 328.764 309.201,327.385 308.082,326.752 307.708 C 326.118 307.334,325.600 306.886,325.600 306.714 C 325.600 306.541,325.386 306.400,325.125 306.400 C 324.864 306.400,323.636 305.603,322.396 304.629 C 321.157 303.656,319.255 302.461,318.171 301.975 C 315.861 300.940,315.083 300.554,311.600 298.712 C 305.853 295.672,305.700 295.600,305.005 295.600 C 304.672 295.600,304.400 295.454,304.400 295.275 C 304.400 295.096,303.770 294.702,303.000 294.400 C 302.230 294.098,301.600 293.704,301.600 293.525 C 301.600 293.346,301.330 293.200,301.000 293.200 C 300.670 293.200,300.400 293.020,300.400 292.800 C 300.400 292.580,300.145 292.400,299.833 292.400 C 299.522 292.400,299.207 292.251,299.133 292.070 C 299.006 291.755,293.439 287.908,292.600 287.555 C 291.803 287.221,288.809 285.286,278.365 278.357 C 272.515 274.476,266.125 270.355,264.165 269.198 C 262.204 268.041,259.369 266.297,257.865 265.321 C 256.360 264.345,254.560 263.224,253.865 262.830 C 253.169 262.436,251.840 261.683,250.911 261.157 C 249.164 260.167,244.991 257.210,243.469 255.882 C 242.179 254.758,237.454 252.061,234.443 250.730 C 232.989 250.088,231.395 249.361,230.901 249.114 C 230.406 248.867,229.921 248.746,229.822 248.844 C 229.508 249.159,228.749 256.791,228.375 263.400 C 228.176 266.920,227.829 272.500,227.604 275.800 C 227.380 279.100,227.094 286.120,226.969 291.400 C 226.845 296.680,226.576 301.171,226.371 301.380 C 226.167 301.589,226.000 302.056,226.000 302.419 C 226.000 302.781,225.725 303.629,225.388 304.304 L 224.776 305.530 216.288 305.777 C 196.074 306.365,197.604 307.368,197.592 293.520 C 197.588 288.394,197.396 282.940,197.167 281.400 C 196.938 279.860,196.659 269.420,196.548 258.200 C 196.437 246.980,196.170 227.000,195.956 213.800 C 195.524 187.225,195.469 178.203,195.649 163.200 C 195.805 150.126,195.657 117.770,195.410 111.377 L 195.101 103.354 196.443 102.225 C 197.748 101.127,197.873 101.103,200.993 101.372 C 202.757 101.524,208.340 101.805,213.400 101.996 C 218.460 102.188,223.140 102.506,223.800 102.704 L 225.000 103.065 224.882 114.032 C 224.817 120.065,224.582 127.070,224.361 129.600 C 223.571 138.636,223.186 146.828,222.820 162.400 C 222.615 171.090,222.271 180.900,222.055 184.200 C 221.404 194.140,221.414 201.779,222.078 201.914 C 222.597 202.019,226.241 198.494,227.607 196.563 C 228.393 195.453,231.074 192.243,232.719 190.443 C 233.444 189.649,234.960 187.650,236.087 186.000 C 237.214 184.350,238.243 182.910,238.374 182.800 C 238.505 182.690,239.128 181.970,239.757 181.200 C 240.387 180.430,241.753 178.873,242.794 177.739 C 243.835 176.606,246.501 172.826,248.717 169.339 C 250.934 165.853,253.657 162.010,254.768 160.800 C 255.879 159.590,256.790 158.375,256.794 158.100 C 256.797 157.825,256.936 157.600,257.102 157.600 C 257.269 157.600,257.659 157.015,257.969 156.300 C 258.497 155.084,261.451 150.442,261.979 150.000 C 262.110 149.890,265.074 145.480,268.567 140.200 C 272.059 134.920,275.070 130.540,275.258 130.467 C 275.446 130.393,275.600 130.078,275.600 129.767 C 275.600 129.455,275.780 129.200,276.000 129.200 C 276.220 129.200,276.400 128.930,276.400 128.600 C 276.400 128.270,276.568 128.000,276.773 128.000 C 276.978 128.000,277.260 127.641,277.399 127.202 C 277.538 126.764,277.874 126.179,278.144 125.902 C 278.415 125.626,280.418 122.700,282.596 119.400 C 284.774 116.100,286.791 113.162,287.078 112.871 C 287.365 112.581,287.600 112.204,287.600 112.034 C 287.600 111.864,288.050 111.201,288.600 110.562 C 289.149 109.923,289.599 109.190,289.600 108.933 C 289.600 108.677,289.747 108.407,289.927 108.333 C 290.107 108.260,292.665 104.600,295.612 100.200 C 300.902 92.303,302.247 90.612,304.600 88.899 C 305.913 87.943,306.400 87.801,306.400 88.373 M113.800 98.902 C 118.420 99.470,123.010 100.208,124.000 100.544 C 124.990 100.879,127.240 101.536,129.000 102.005 C 132.039 102.815,133.075 103.384,135.761 105.720 C 136.399 106.275,137.389 106.970,137.961 107.264 C 138.532 107.558,139.090 107.889,139.200 107.999 C 139.310 108.110,139.805 108.425,140.300 108.700 C 140.795 108.975,141.605 109.425,142.100 109.700 C 142.595 109.975,143.090 110.308,143.200 110.440 C 143.310 110.572,143.820 110.902,144.334 111.172 C 145.451 111.761,146.988 113.002,148.431 114.482 C 150.050 116.140,154.485 125.226,154.875 127.680 C 155.961 134.525,156.115 148.093,155.163 153.200 C 153.025 164.681,152.080 166.918,146.380 174.000 C 142.679 178.597,140.178 180.914,135.346 184.222 C 133.918 185.200,132.407 186.000,131.988 186.000 C 131.142 186.000,128.400 187.213,128.400 187.587 C 128.400 187.718,129.255 188.060,130.300 188.346 C 131.345 188.633,132.605 189.032,133.100 189.233 C 133.595 189.435,134.495 189.801,135.100 190.047 C 135.705 190.292,136.513 190.652,136.895 190.847 C 137.277 191.041,137.941 191.200,138.371 191.200 C 138.801 191.200,139.264 191.380,139.400 191.600 C 139.536 191.820,140.359 192.000,141.229 192.000 C 142.099 192.000,143.123 192.157,143.505 192.350 C 143.887 192.542,145.010 193.106,146.000 193.602 C 159.490 200.363,168.285 206.973,169.737 211.440 C 169.944 212.078,170.493 213.138,170.957 213.797 C 172.746 216.336,174.400 219.328,174.400 220.025 C 174.400 220.425,174.580 220.864,174.800 221.000 C 175.020 221.136,175.200 221.856,175.200 222.600 C 175.200 223.344,175.380 224.064,175.600 224.200 C 175.820 224.336,176.000 225.073,176.000 225.838 C 176.000 226.602,176.305 227.694,176.678 228.263 C 178.026 230.320,179.202 253.358,178.019 254.541 C 177.789 254.771,177.600 255.633,177.600 256.456 C 177.600 257.279,177.420 258.064,177.200 258.200 C 176.980 258.336,176.800 258.772,176.800 259.168 C 176.800 259.565,176.109 261.219,175.265 262.845 C 173.800 265.664,173.312 266.543,171.173 270.200 C 169.483 273.090,167.354 275.751,164.133 279.000 C 162.388 280.760,160.433 282.901,159.788 283.758 C 158.444 285.546,152.692 290.310,151.201 290.872 C 150.651 291.079,149.677 291.508,149.039 291.825 C 148.400 292.141,147.635 292.400,147.339 292.400 C 147.042 292.400,146.800 292.580,146.800 292.800 C 146.800 293.020,146.451 293.200,146.024 293.200 C 145.597 293.200,145.136 293.380,145.000 293.600 C 144.864 293.820,144.403 294.000,143.976 294.000 C 143.549 294.000,143.200 294.159,143.200 294.353 C 143.200 294.548,142.795 294.805,142.300 294.926 C 141.805 295.046,140.680 295.354,139.800 295.611 C 138.920 295.868,137.210 296.228,136.000 296.412 C 132.300 296.974,126.137 297.956,121.000 298.800 C 108.476 300.860,85.343 301.915,81.200 300.616 C 77.148 299.345,76.221 299.160,72.000 298.777 C 69.690 298.567,66.270 298.213,64.400 297.990 C 62.530 297.767,59.560 297.479,57.800 297.350 C 53.207 297.014,53.546 298.176,53.863 283.846 C 54.187 269.198,54.197 270.196,53.613 259.000 C 52.986 246.960,52.986 247.010,53.619 243.400 C 54.247 239.825,54.248 240.595,53.601 198.800 C 53.002 160.026,53.002 158.508,53.589 150.200 C 53.869 146.240,54.125 135.980,54.156 127.400 C 54.195 116.861,54.358 111.540,54.656 111.000 C 54.918 110.526,55.113 107.787,55.134 104.287 C 55.153 101.035,55.284 98.188,55.425 97.960 C 56.032 96.978,104.504 97.760,113.800 98.902 M81.022 131.700 C 80.821 132.641,80.348 147.701,80.303 154.600 C 80.289 156.800,80.420 160.265,80.594 162.300 L 80.911 166.000 85.071 166.000 C 88.447 166.000,89.529 165.849,90.805 165.198 C 92.767 164.196,95.200 162.090,95.200 161.392 C 95.200 161.103,95.344 160.807,95.520 160.733 C 96.074 160.502,99.181 153.669,99.618 151.720 C 100.037 149.849,100.016 149.677,98.370 141.413 C 97.535 137.225,93.386 131.600,91.130 131.600 C 90.755 131.600,90.336 131.420,90.200 131.200 C 89.620 130.262,81.233 130.719,81.022 131.700 M78.226 208.100 C 77.176 219.922,76.927 235.125,77.404 258.062 L 77.668 270.725 79.534 270.959 C 89.788 272.243,94.466 272.393,100.200 271.621 C 102.180 271.355,105.420 270.994,107.400 270.820 C 109.380 270.646,111.720 270.289,112.600 270.026 C 113.480 269.763,114.920 269.385,115.800 269.186 C 121.045 267.998,125.816 264.836,127.599 261.366 C 127.929 260.725,128.297 260.110,128.417 260.000 C 128.809 259.642,131.551 253.847,132.196 252.014 C 134.667 244.998,134.161 223.782,131.395 218.425 C 129.055 213.891,123.820 210.196,117.200 208.404 C 116.210 208.136,114.987 207.755,114.481 207.558 C 113.976 207.361,113.041 207.200,112.405 207.200 C 111.768 207.200,111.136 207.020,111.000 206.800 C 110.861 206.574,108.923 206.400,106.557 206.400 C 103.180 206.400,102.038 206.244,100.706 205.600 C 99.182 204.864,98.231 204.800,88.784 204.800 L 78.519 204.800 78.226 208.100 " stroke="none" fill="#239cec" fill-rule="evenodd"></path><path id="path2" d="M302.378 91.100 L 301.000 92.600 302.500 91.222 C 303.896 89.938,304.184 89.600,303.878 89.600 C 303.812 89.600,303.137 90.275,302.378 91.100 M55.738 98.217 C 55.608 98.557,55.613 98.947,55.751 99.084 C 55.888 99.221,56.000 99.035,56.000 98.670 C 56.000 98.062,57.801 97.998,77.700 97.900 L 99.400 97.793 77.687 97.696 C 58.428 97.611,55.948 97.670,55.738 98.217 M100.900 98.276 C 101.285 98.376,101.915 98.376,102.300 98.276 C 102.685 98.175,102.370 98.093,101.600 98.093 C 100.830 98.093,100.515 98.175,100.900 98.276 M55.354 106.000 C 55.354 108.750,55.418 109.875,55.496 108.500 C 55.574 107.125,55.574 104.875,55.496 103.500 C 55.418 102.125,55.354 103.250,55.354 106.000 M206.300 102.289 C 207.015 102.378,208.185 102.378,208.900 102.289 C 209.615 102.201,209.030 102.128,207.600 102.128 C 206.170 102.128,205.585 102.201,206.300 102.289 M218.105 102.687 C 218.714 102.779,219.614 102.777,220.105 102.682 C 220.597 102.587,220.100 102.511,219.000 102.514 C 217.900 102.517,217.497 102.595,218.105 102.687 M195.340 106.800 C 195.340 108.670,195.409 109.435,195.493 108.500 C 195.577 107.565,195.577 106.035,195.493 105.100 C 195.409 104.165,195.340 104.930,195.340 106.800 M224.950 108.200 C 224.951 110.620,225.016 111.558,225.096 110.285 C 225.176 109.012,225.175 107.032,225.094 105.885 C 225.014 104.738,224.949 105.780,224.950 108.200 M195.720 113.600 C 195.720 114.810,195.795 115.305,195.887 114.700 C 195.978 114.095,195.978 113.105,195.887 112.500 C 195.795 111.895,195.720 112.390,195.720 113.600 M54.528 116.800 C 54.528 118.230,54.601 118.815,54.689 118.100 C 54.778 117.385,54.778 116.215,54.689 115.500 C 54.601 114.785,54.528 115.370,54.528 116.800 M311.753 128.500 C 310.376 130.836,310.286 131.035,310.987 130.200 C 311.800 129.232,312.500 128.000,312.238 128.000 C 312.133 128.000,311.915 128.225,311.753 128.500 M54.566 136.000 C 54.566 140.070,54.625 141.735,54.698 139.700 C 54.771 137.665,54.771 134.335,54.698 132.300 C 54.625 130.265,54.566 131.930,54.566 136.000 M224.093 130.000 C 224.093 130.770,224.175 131.085,224.276 130.700 C 224.376 130.315,224.376 129.685,224.276 129.300 C 224.175 128.915,224.093 129.230,224.093 130.000 M196.179 142.000 C 196.179 149.150,196.233 152.075,196.299 148.500 C 196.366 144.925,196.366 139.075,196.299 135.500 C 196.233 131.925,196.179 134.850,196.179 142.000 M81.700 130.276 C 82.085 130.376,82.715 130.376,83.100 130.276 C 83.485 130.175,83.170 130.093,82.400 130.093 C 81.630 130.093,81.315 130.175,81.700 130.276 M88.400 130.555 C 88.400 130.640,88.930 130.787,89.579 130.882 C 90.227 130.977,90.667 130.908,90.555 130.728 C 90.357 130.407,88.400 130.250,88.400 130.555 M80.557 136.000 C 80.557 138.970,80.620 140.185,80.697 138.700 C 80.774 137.215,80.774 134.785,80.697 133.300 C 80.620 131.815,80.557 133.030,80.557 136.000 M155.293 134.000 C 155.293 134.770,155.375 135.085,155.476 134.700 C 155.576 134.315,155.576 133.685,155.476 133.300 C 155.375 132.915,155.293 133.230,155.293 134.000 M272.246 135.000 C 271.891 135.550,271.309 136.495,270.953 137.100 L 270.305 138.200 271.110 137.226 C 272.060 136.076,273.321 134.000,273.069 134.000 C 272.971 134.000,272.601 134.450,272.246 135.000 M223.320 138.000 C 223.320 139.210,223.395 139.705,223.487 139.100 C 223.578 138.495,223.578 137.505,223.487 136.900 C 223.395 136.295,223.320 136.790,223.320 138.000 M222.909 142.800 C 222.909 143.790,222.987 144.195,223.082 143.700 C 223.178 143.205,223.178 142.395,223.082 141.900 C 222.987 141.405,222.909 141.810,222.909 142.800 M80.109 146.000 C 80.109 146.990,80.187 147.395,80.282 146.900 C 80.378 146.405,80.378 145.595,80.282 145.100 C 80.187 144.605,80.109 145.010,80.109 146.000 M99.206 145.033 C 99.209 145.455,99.395 146.070,99.618 146.400 C 99.915 146.838,99.952 146.676,99.756 145.800 C 99.427 144.329,99.198 144.010,99.206 145.033 M155.301 149.000 C 155.305 149.880,155.387 150.193,155.483 149.695 C 155.579 149.198,155.575 148.478,155.475 148.095 C 155.375 147.713,155.296 148.120,155.301 149.000 M79.751 154.400 C 79.751 156.930,79.816 157.965,79.896 156.700 C 79.975 155.435,79.975 153.365,79.896 152.100 C 79.816 150.835,79.751 151.870,79.751 154.400 M53.701 155.400 C 53.705 156.280,53.787 156.593,53.883 156.095 C 53.979 155.598,53.975 154.878,53.875 154.495 C 53.775 154.113,53.696 154.520,53.701 155.400 M254.975 160.900 L 253.800 162.200 255.100 161.025 C 255.815 160.379,256.400 159.794,256.400 159.725 C 256.400 159.416,256.070 159.688,254.975 160.900 M195.714 163.400 C 195.717 164.500,195.795 164.903,195.887 164.295 C 195.979 163.686,195.977 162.786,195.882 162.295 C 195.787 161.803,195.711 162.300,195.714 163.400 M53.324 167.800 C 53.326 169.120,53.401 169.612,53.490 168.893 C 53.579 168.174,53.577 167.094,53.486 166.493 C 53.395 165.892,53.322 166.480,53.324 167.800 M222.531 170.600 C 222.533 172.140,222.605 172.721,222.692 171.891 C 222.779 171.061,222.777 169.801,222.689 169.091 C 222.600 168.381,222.529 169.060,222.531 170.600 M196.131 171.000 C 196.133 172.540,196.205 173.121,196.292 172.291 C 196.379 171.461,196.377 170.201,196.289 169.491 C 196.200 168.781,196.129 169.460,196.131 171.000 M53.728 173.600 C 53.728 175.030,53.801 175.615,53.889 174.900 C 53.978 174.185,53.978 173.015,53.889 172.300 C 53.801 171.585,53.728 172.170,53.728 173.600 M222.101 175.800 C 222.105 176.680,222.187 176.993,222.283 176.495 C 222.379 175.998,222.375 175.278,222.275 174.895 C 222.175 174.513,222.096 174.920,222.101 175.800 M142.000 178.200 C 141.028 179.190,140.323 180.000,140.433 180.000 C 140.543 180.000,141.428 179.190,142.400 178.200 C 143.372 177.210,144.077 176.400,143.967 176.400 C 143.857 176.400,142.972 177.210,142.000 178.200 M241.781 179.300 L 240.200 181.000 241.900 179.419 C 243.481 177.948,243.784 177.600,243.481 177.600 C 243.416 177.600,242.651 178.365,241.781 179.300 M195.758 183.800 C 195.758 186.880,195.821 188.087,195.897 186.482 C 195.973 184.878,195.973 182.358,195.896 180.882 C 195.819 179.407,195.757 180.720,195.758 183.800 M221.701 182.200 C 221.705 183.080,221.787 183.393,221.883 182.895 C 221.979 182.398,221.975 181.678,221.875 181.295 C 221.775 180.913,221.696 181.320,221.701 182.200 M221.314 186.200 C 221.317 187.300,221.395 187.703,221.487 187.095 C 221.579 186.486,221.577 185.586,221.482 185.095 C 221.387 184.603,221.311 185.100,221.314 186.200 M196.175 207.200 C 196.175 213.250,196.231 215.725,196.299 212.700 C 196.367 209.675,196.367 204.725,196.299 201.700 C 196.231 198.675,196.175 201.150,196.175 207.200 M261.600 198.600 C 260.628 199.590,259.923 200.400,260.033 200.400 C 260.143 200.400,261.028 199.590,262.000 198.600 C 262.972 197.610,263.677 196.800,263.567 196.800 C 263.457 196.800,262.572 197.610,261.600 198.600 M53.769 208.200 C 53.770 212.820,53.828 214.655,53.899 212.278 C 53.970 209.901,53.969 206.121,53.898 203.878 C 53.827 201.635,53.769 203.580,53.769 208.200 M77.762 204.954 C 77.645 205.259,77.619 206.294,77.705 207.254 C 77.859 208.985,77.861 208.983,77.930 206.906 L 78.000 204.813 88.900 204.700 L 99.800 204.587 88.887 204.493 C 79.894 204.416,77.937 204.497,77.762 204.954 M104.700 206.293 C 105.635 206.377,107.165 206.377,108.100 206.293 C 109.035 206.209,108.270 206.140,106.400 206.140 C 104.530 206.140,103.765 206.209,104.700 206.293 M166.400 207.725 C 166.400 207.794,166.985 208.379,167.700 209.025 L 169.000 210.200 167.825 208.900 C 166.730 207.688,166.400 207.416,166.400 207.725 M125.200 211.311 C 125.200 211.387,125.785 211.878,126.500 212.401 C 127.304 212.990,127.584 213.087,127.233 212.655 C 126.700 211.999,125.200 211.007,125.200 211.311 M77.346 218.200 C 77.347 220.400,77.414 221.249,77.495 220.087 C 77.576 218.924,77.576 217.124,77.493 216.087 C 77.411 215.049,77.345 216.000,77.346 218.200 M54.114 223.000 C 54.117 224.100,54.195 224.503,54.287 223.895 C 54.379 223.286,54.377 222.386,54.282 221.895 C 54.187 221.403,54.111 221.900,54.114 223.000 M257.600 222.125 C 257.600 222.194,258.185 222.779,258.900 223.425 L 260.200 224.600 259.025 223.300 C 257.930 222.088,257.600 221.816,257.600 222.125 M76.901 225.800 C 76.905 226.680,76.987 226.993,77.083 226.495 C 77.179 225.998,77.175 225.278,77.075 224.895 C 76.975 224.513,76.896 224.920,76.901 225.800 M54.534 230.000 C 54.534 231.650,54.605 232.325,54.691 231.500 C 54.778 230.675,54.778 229.325,54.691 228.500 C 54.605 227.675,54.534 228.350,54.534 230.000 M133.701 229.000 C 133.705 229.880,133.787 230.193,133.883 229.695 C 133.979 229.198,133.975 228.478,133.875 228.095 C 133.775 227.713,133.696 228.120,133.701 229.000 M196.109 231.200 C 196.109 232.190,196.187 232.595,196.282 232.100 C 196.378 231.605,196.378 230.795,196.282 230.300 C 196.187 229.805,196.109 230.210,196.109 231.200 M76.562 236.600 C 76.562 240.120,76.624 241.506,76.698 239.681 C 76.772 237.856,76.772 234.976,76.697 233.281 C 76.622 231.586,76.561 233.080,76.562 236.600 M177.293 231.600 C 177.293 232.370,177.375 232.685,177.476 232.300 C 177.576 231.915,177.576 231.285,177.476 230.900 C 177.375 230.515,177.293 230.830,177.293 231.600 M134.154 235.600 C 134.154 238.350,134.218 239.475,134.296 238.100 C 134.374 236.725,134.374 234.475,134.296 233.100 C 134.218 231.725,134.154 232.850,134.154 235.600 M54.514 238.600 C 54.517 239.700,54.595 240.103,54.687 239.495 C 54.779 238.886,54.777 237.986,54.682 237.495 C 54.587 237.003,54.511 237.500,54.514 238.600 M178.161 246.000 C 178.161 249.410,178.222 250.805,178.297 249.100 C 178.372 247.395,178.372 244.605,178.297 242.900 C 178.222 241.195,178.161 242.590,178.161 246.000 M134.101 243.800 C 134.105 244.680,134.187 244.993,134.283 244.495 C 134.379 243.998,134.375 243.278,134.275 242.895 C 134.175 242.513,134.096 242.920,134.101 243.800 M53.309 248.400 C 53.309 249.390,53.387 249.795,53.482 249.300 C 53.578 248.805,53.578 247.995,53.482 247.500 C 53.387 247.005,53.309 247.410,53.309 248.400 M76.914 250.200 C 76.917 251.300,76.995 251.703,77.087 251.095 C 77.179 250.486,77.177 249.586,77.082 249.095 C 76.987 248.603,76.911 249.100,76.914 250.200 M228.893 253.200 C 228.893 253.970,228.975 254.285,229.076 253.900 C 229.176 253.515,229.176 252.885,229.076 252.500 C 228.975 252.115,228.893 252.430,228.893 253.200 M300.200 254.800 C 301.283 255.900,302.260 256.800,302.370 256.800 C 302.480 256.800,301.683 255.900,300.600 254.800 C 299.517 253.700,298.540 252.800,298.430 252.800 C 298.320 252.800,299.117 253.700,300.200 254.800 M77.386 263.167 C 77.398 269.724,77.493 270.959,78.000 271.097 C 78.435 271.216,78.465 271.165,78.109 270.912 C 77.759 270.664,77.583 268.396,77.495 262.982 L 77.372 255.400 77.386 263.167 M228.134 260.000 C 228.134 261.650,228.205 262.325,228.291 261.500 C 228.378 260.675,228.378 259.325,228.291 258.500 C 228.205 257.675,228.134 258.350,228.134 260.000 M308.800 260.925 C 308.800 260.994,309.385 261.579,310.100 262.225 L 311.400 263.400 310.225 262.100 C 309.130 260.888,308.800 260.616,308.800 260.925 M227.701 267.000 C 227.705 267.880,227.787 268.193,227.883 267.695 C 227.979 267.198,227.975 266.478,227.875 266.095 C 227.775 265.713,227.696 266.120,227.701 267.000 M54.528 269.600 C 54.528 271.030,54.601 271.615,54.689 270.900 C 54.778 270.185,54.778 269.015,54.689 268.300 C 54.601 267.585,54.528 268.170,54.528 269.600 M196.940 272.800 C 196.940 274.670,197.009 275.435,197.093 274.500 C 197.177 273.565,197.177 272.035,197.093 271.100 C 197.009 270.165,196.940 270.930,196.940 272.800 M320.000 270.525 C 320.000 270.594,320.585 271.179,321.300 271.825 L 322.600 273.000 321.425 271.700 C 320.330 270.488,320.000 270.216,320.000 270.525 M108.505 271.087 C 109.114 271.179,110.014 271.177,110.505 271.082 C 110.997 270.987,110.500 270.911,109.400 270.914 C 108.300 270.917,107.897 270.995,108.505 271.087 M227.328 273.600 C 227.328 275.030,227.401 275.615,227.489 274.900 C 227.578 274.185,227.578 273.015,227.489 272.300 C 227.401 271.585,227.328 272.170,227.328 273.600 M82.300 271.882 C 82.795 271.978,83.605 271.978,84.100 271.882 C 84.595 271.787,84.190 271.709,83.200 271.709 C 82.210 271.709,81.805 271.787,82.300 271.882 M101.300 271.876 C 101.685 271.976,102.315 271.976,102.700 271.876 C 103.085 271.775,102.770 271.693,102.000 271.693 C 101.230 271.693,100.915 271.775,101.300 271.876 M91.300 272.694 C 92.345 272.776,94.055 272.776,95.100 272.694 C 96.145 272.612,95.290 272.544,93.200 272.544 C 91.110 272.544,90.255 272.612,91.300 272.694 M54.124 277.000 C 54.126 278.320,54.201 278.812,54.290 278.093 C 54.379 277.374,54.377 276.294,54.286 275.693 C 54.195 275.092,54.122 275.680,54.124 277.000 M197.309 278.400 C 197.309 279.390,197.387 279.795,197.482 279.300 C 197.578 278.805,197.578 277.995,197.482 277.500 C 197.387 277.005,197.309 277.410,197.309 278.400 M276.800 276.924 C 276.800 277.017,277.565 277.598,278.500 278.215 C 279.435 278.832,279.989 279.080,279.731 278.768 C 279.234 278.167,276.800 276.636,276.800 276.924 M226.893 279.600 C 226.893 280.370,226.975 280.685,227.076 280.300 C 227.176 279.915,227.176 279.285,227.076 278.900 C 226.975 278.515,226.893 278.830,226.893 279.600 M197.734 288.000 C 197.734 289.650,197.805 290.325,197.891 289.500 C 197.978 288.675,197.978 287.325,197.891 286.500 C 197.805 285.675,197.734 286.350,197.734 288.000 M226.564 291.800 C 226.563 295.540,226.623 297.124,226.697 295.320 C 226.771 293.515,226.772 290.455,226.698 288.520 C 226.625 286.584,226.564 288.060,226.564 291.800 M341.600 287.400 C 342.795 288.610,343.863 289.600,343.973 289.600 C 344.083 289.600,343.195 288.610,342.000 287.400 C 340.805 286.190,339.737 285.200,339.627 285.200 C 339.517 285.200,340.405 286.190,341.600 287.400 M134.305 296.283 C 134.802 296.379,135.522 296.375,135.905 296.275 C 136.287 296.175,135.880 296.096,135.000 296.101 C 134.120 296.105,133.807 296.187,134.305 296.283 M58.900 297.076 C 59.285 297.176,59.915 297.176,60.300 297.076 C 60.685 296.975,60.370 296.893,59.600 296.893 C 58.830 296.893,58.515 296.975,58.900 297.076 M64.700 297.882 C 65.195 297.978,66.005 297.978,66.500 297.882 C 66.995 297.787,66.590 297.709,65.600 297.709 C 64.610 297.709,64.205 297.787,64.700 297.882 M74.100 298.676 C 74.485 298.776,75.115 298.776,75.500 298.676 C 75.885 298.575,75.570 298.493,74.800 298.493 C 74.030 298.493,73.715 298.575,74.100 298.676 M197.720 300.800 C 197.720 302.010,197.795 302.505,197.887 301.900 C 197.978 301.295,197.978 300.305,197.887 299.700 C 197.795 299.095,197.720 299.590,197.720 300.800 M102.311 300.293 C 103.251 300.378,104.691 300.377,105.511 300.291 C 106.330 300.205,105.560 300.136,103.800 300.137 C 102.040 300.139,101.370 300.209,102.311 300.293 M93.312 300.695 C 94.364 300.777,95.984 300.776,96.912 300.692 C 97.840 300.608,96.980 300.541,95.000 300.542 C 93.020 300.543,92.260 300.612,93.312 300.695 M212.291 305.489 C 213.001 305.577,214.261 305.579,215.091 305.492 C 215.921 305.405,215.340 305.333,213.800 305.331 C 212.260 305.329,211.581 305.400,212.291 305.489 M205.700 305.876 C 206.085 305.976,206.715 305.976,207.100 305.876 C 207.485 305.775,207.170 305.693,206.400 305.693 C 205.630 305.693,205.315 305.775,205.700 305.876 " stroke="none" fill="#73c1f4" fill-rule="evenodd"></path><path id="path3" d="M303.339 90.499 C 302.325 91.434,299.331 95.439,296.685 99.399 C 294.039 103.360,290.906 107.995,289.723 109.700 C 288.539 111.405,287.712 112.794,287.885 112.787 C 288.058 112.780,291.080 108.427,294.600 103.113 C 302.988 90.450,304.966 88.409,307.261 90.044 C 307.913 90.508,308.535 90.798,308.644 90.689 C 308.889 90.444,306.278 88.800,305.644 88.800 C 305.390 88.800,304.353 89.565,303.339 90.499 M309.200 91.095 C 309.200 91.484,310.814 92.519,311.051 92.282 C 311.147 92.186,310.769 91.810,310.212 91.445 C 309.656 91.080,309.200 90.922,309.200 91.095 M311.613 92.713 C 311.619 92.871,314.072 94.620,317.063 96.600 C 321.453 99.506,322.772 100.605,323.907 102.300 C 325.438 104.587,325.954 105.040,325.046 103.300 C 323.836 100.981,311.551 91.299,311.613 92.713 M55.781 99.360 C 55.641 100.108,55.603 101.053,55.696 101.460 C 55.790 101.867,56.007 101.347,56.178 100.303 L 56.490 98.407 78.545 98.300 L 100.600 98.193 78.318 98.097 L 56.036 98.000 55.781 99.360 M100.833 98.544 C 100.925 98.624,102.800 98.782,105.000 98.896 C 107.598 99.031,108.439 98.988,107.400 98.775 C 105.822 98.451,100.510 98.264,100.833 98.544 M109.233 99.349 C 109.325 99.430,110.930 99.598,112.800 99.721 C 115.228 99.880,115.743 99.844,114.600 99.595 C 113.018 99.250,108.911 99.061,109.233 99.349 M117.633 100.144 C 117.725 100.223,118.790 100.399,120.000 100.534 C 121.470 100.698,122.001 100.652,121.600 100.396 C 121.056 100.048,117.242 99.806,117.633 100.144 M124.200 101.600 C 125.300 102.006,126.560 102.339,127.000 102.341 C 127.440 102.343,126.810 102.002,125.600 101.583 C 122.779 100.608,121.551 100.623,124.200 101.600 M196.900 102.380 C 196.185 102.824,195.600 103.387,195.600 103.630 C 195.600 103.872,196.167 103.594,196.861 103.010 C 198.088 101.978,198.219 101.957,201.761 102.225 C 203.762 102.377,205.310 102.410,205.200 102.299 C 204.463 101.553,198.131 101.614,196.900 102.380 M128.600 102.800 C 129.040 102.989,129.760 103.144,130.200 103.144 L 131.000 103.144 130.200 102.800 C 129.760 102.611,129.040 102.456,128.600 102.456 L 127.800 102.456 128.600 102.800 M213.000 102.821 C 214.980 102.983,217.860 103.106,219.400 103.095 L 222.200 103.074 219.400 102.787 C 217.860 102.629,214.980 102.506,213.000 102.513 L 209.400 102.527 213.000 102.821 M131.800 103.667 C 132.240 103.910,132.969 104.400,133.419 104.755 C 133.870 105.110,133.732 104.905,133.113 104.300 C 132.494 103.695,131.765 103.205,131.494 103.212 C 131.222 103.219,131.360 103.423,131.800 103.667 M224.028 103.476 C 224.118 104.515,224.744 105.396,224.772 104.524 C 224.787 104.042,224.620 103.536,224.400 103.400 C 224.180 103.264,224.013 103.298,224.028 103.476 M195.932 117.000 C 196.029 123.600,196.174 129.075,196.254 129.167 C 196.505 129.454,196.324 112.790,196.033 108.800 C 195.880 106.710,195.835 110.400,195.932 117.000 M135.291 106.262 C 135.959 107.017,139.200 109.024,139.200 108.682 C 139.200 108.589,138.165 107.831,136.900 106.997 C 135.635 106.164,134.911 105.833,135.291 106.262 M324.000 108.756 C 324.000 108.952,322.956 110.707,321.679 112.656 C 318.824 117.017,318.713 117.200,318.920 117.200 C 319.087 117.200,320.859 114.600,323.441 110.564 C 324.202 109.374,324.639 108.400,324.412 108.400 C 324.186 108.400,324.000 108.560,324.000 108.756 M139.600 108.914 C 139.600 109.155,142.706 111.200,143.071 111.200 C 143.230 111.200,143.189 111.049,142.980 110.864 C 142.352 110.308,139.600 108.721,139.600 108.914 M54.988 112.538 C 54.839 113.535,54.799 114.586,54.900 114.875 C 55.000 115.164,55.218 114.443,55.382 113.274 C 55.547 112.105,55.587 111.054,55.471 110.938 C 55.355 110.822,55.138 111.542,54.988 112.538 M224.256 112.645 C 224.115 113.672,224.031 117.772,224.069 121.756 L 224.138 129.000 224.406 120.000 C 224.554 115.050,224.639 110.950,224.594 110.889 C 224.549 110.828,224.397 111.618,224.256 112.645 M143.600 111.548 C 143.600 111.767,143.915 112.050,144.300 112.177 C 145.389 112.536,148.245 115.249,149.166 116.800 C 149.623 117.570,149.998 117.917,149.999 117.572 C 149.999 117.227,149.393 116.237,148.651 115.372 C 147.142 113.614,143.600 110.932,143.600 111.548 M283.316 119.203 C 281.102 122.501,279.406 125.194,279.546 125.186 C 279.859 125.169,287.650 113.517,287.470 113.336 C 287.398 113.265,285.529 115.905,283.316 119.203 M316.116 121.285 C 313.400 125.514,312.890 126.390,313.488 125.800 C 314.292 125.006,318.862 117.928,318.684 117.751 C 318.584 117.651,317.429 119.241,316.116 121.285 M54.554 124.000 C 54.554 126.750,54.618 127.875,54.696 126.500 C 54.774 125.125,54.774 122.875,54.696 121.500 C 54.618 120.125,54.554 121.250,54.554 124.000 M152.086 122.400 C 153.416 124.850,153.751 126.122,154.770 132.600 L 155.148 135.000 154.934 132.000 C 154.569 126.869,152.975 121.961,151.101 120.200 C 150.867 119.980,151.310 120.970,152.086 122.400 M278.245 126.588 C 277.880 127.144,277.722 127.600,277.895 127.600 C 278.284 127.600,279.319 125.986,279.082 125.749 C 278.986 125.653,278.610 126.031,278.245 126.588 M80.667 129.867 C 80.124 130.409,80.421 130.880,81.002 130.398 C 81.398 130.070,82.187 129.986,83.302 130.155 C 84.495 130.335,84.821 130.292,84.400 130.012 C 83.724 129.561,81.075 129.458,80.667 129.867 M85.800 130.000 C 85.647 130.247,86.287 130.385,87.476 130.360 C 89.037 130.328,89.211 130.260,88.400 130.000 C 86.965 129.541,86.084 129.541,85.800 130.000 M223.453 130.836 C 223.314 131.531,223.224 133.023,223.253 134.150 C 223.299 135.914,223.353 135.757,223.641 133.021 C 223.988 129.729,223.893 128.633,223.453 130.836 M196.578 142.000 C 196.578 148.710,196.632 151.455,196.699 148.100 C 196.766 144.745,196.766 139.255,196.699 135.900 C 196.632 132.545,196.578 135.290,196.578 142.000 M309.428 131.861 C 308.856 132.884,308.452 133.785,308.529 133.863 C 308.607 133.940,309.161 133.103,309.760 132.002 C 310.360 130.901,310.764 130.000,310.659 130.000 C 310.554 130.000,310.000 130.837,309.428 131.861 M274.487 132.100 C 273.027 134.256,272.712 134.800,272.920 134.800 C 273.012 134.800,273.744 133.810,274.547 132.600 C 275.351 131.390,275.925 130.400,275.823 130.400 C 275.722 130.400,275.120 131.165,274.487 132.100 M92.794 131.982 C 93.341 132.402,93.868 132.666,93.965 132.569 C 94.191 132.342,92.729 131.227,92.200 131.222 C 91.980 131.220,92.247 131.561,92.794 131.982 M94.400 132.956 C 94.400 133.110,94.851 133.687,95.402 134.239 C 97.112 135.948,99.142 140.591,99.234 143.000 C 99.259 143.660,99.433 144.650,99.621 145.200 C 99.842 145.849,99.880 145.377,99.729 143.852 C 99.465 141.191,98.518 138.355,97.070 135.884 C 96.120 134.263,94.400 132.377,94.400 132.956 M306.481 137.724 C 305.617 139.552,304.389 141.667,303.755 142.424 C 302.268 144.196,300.722 146.400,300.966 146.400 C 301.758 146.400,306.845 138.438,308.010 135.375 C 308.801 133.294,307.980 134.555,306.481 137.724 M155.362 141.400 C 155.362 144.920,155.424 146.306,155.498 144.481 C 155.572 142.656,155.572 139.776,155.497 138.081 C 155.422 136.386,155.361 137.880,155.362 141.400 M222.662 140.093 C 222.521 141.912,222.437 148.980,222.477 155.800 L 222.549 168.200 222.798 152.600 C 222.934 144.020,223.018 136.952,222.983 136.893 C 222.948 136.834,222.804 138.274,222.662 140.093 M79.901 142.200 C 79.738 143.740,79.629 146.170,79.659 147.600 C 79.704 149.847,79.759 149.630,80.065 146.000 C 80.473 141.140,80.339 138.036,79.901 142.200 M54.203 146.873 C 54.051 148.923,53.992 151.230,54.071 152.000 C 54.150 152.770,54.363 151.182,54.544 148.470 C 54.725 145.759,54.785 143.452,54.676 143.343 C 54.568 143.234,54.355 144.823,54.203 146.873 M265.012 146.300 C 264.013 147.785,262.376 150.170,261.375 151.600 C 259.529 154.236,258.436 156.039,259.003 155.510 C 259.310 155.223,260.652 153.324,264.629 147.547 C 267.044 144.040,267.313 143.600,267.038 143.600 C 266.922 143.600,266.010 144.815,265.012 146.300 M100.141 149.820 C 100.145 151.773,100.259 152.614,100.434 152.000 C 100.815 150.670,100.817 148.387,100.439 147.420 C 100.259 146.961,100.136 147.951,100.141 149.820 M299.182 148.900 C 298.466 150.055,297.444 151.692,296.910 152.537 C 296.377 153.382,296.015 154.148,296.106 154.240 C 296.198 154.331,297.227 152.830,298.394 150.903 C 300.983 146.628,300.888 146.800,300.665 146.800 C 300.565 146.800,299.898 147.745,299.182 148.900 M154.625 150.700 C 154.477 152.185,154.277 154.030,154.181 154.800 C 154.031 155.996,154.056 156.050,154.349 155.171 C 154.749 153.975,155.358 148.000,155.081 148.000 C 154.978 148.000,154.772 149.215,154.625 150.700 M97.839 157.306 C 94.139 164.904,91.858 166.509,85.022 166.325 C 82.479 166.256,80.399 166.335,80.399 166.500 C 80.401 167.252,89.606 166.813,91.232 165.983 C 94.044 164.549,101.048 154.477,99.960 153.433 C 99.872 153.349,98.918 155.092,97.839 157.306 M196.050 161.233 C 196.077 164.845,196.223 169.060,196.373 170.600 C 196.524 172.140,196.567 169.260,196.469 164.200 C 196.372 159.140,196.226 154.925,196.146 154.833 C 196.066 154.742,196.022 157.622,196.050 161.233 M295.014 155.835 C 294.641 156.404,294.405 156.938,294.489 157.022 C 294.573 157.107,294.958 156.641,295.344 155.988 C 296.206 154.528,295.948 154.409,295.014 155.835 M153.274 158.584 C 152.808 160.590,151.828 163.697,150.998 165.800 C 150.782 166.346,150.813 166.473,151.095 166.200 C 151.857 165.460,154.220 157.661,153.938 156.814 C 153.856 156.569,153.557 157.365,153.274 158.584 M53.385 158.985 C 53.230 160.223,53.200 161.334,53.319 161.452 C 53.437 161.570,53.661 160.654,53.815 159.415 C 53.970 158.177,54.000 157.066,53.881 156.948 C 53.763 156.830,53.539 157.746,53.385 158.985 M257.045 158.588 C 256.680 159.144,256.522 159.600,256.695 159.600 C 257.084 159.600,258.119 157.986,257.882 157.749 C 257.786 157.653,257.410 158.031,257.045 158.588 M293.269 158.439 C 292.510 159.654,292.966 159.816,293.755 158.612 C 294.120 158.056,294.278 157.600,294.105 157.600 C 293.933 157.600,293.557 157.978,293.269 158.439 M79.628 161.033 C 79.644 162.335,79.814 163.760,80.006 164.200 C 80.222 164.694,80.267 163.853,80.123 162.000 C 79.836 158.324,79.590 157.843,79.628 161.033 M254.736 161.500 C 253.115 163.203,249.838 167.971,250.104 168.237 C 250.201 168.334,251.067 167.197,252.028 165.710 C 252.989 164.224,254.387 162.331,255.135 161.504 C 256.896 159.553,256.590 159.551,254.736 161.500 M291.119 161.701 C 290.525 162.635,289.625 163.921,289.119 164.558 C 288.149 165.779,282.722 172.461,281.637 173.769 C 281.287 174.192,281.208 174.417,281.461 174.269 C 282.610 173.601,293.132 159.999,292.499 160.001 C 292.335 160.001,291.714 160.766,291.119 161.701 M53.499 166.800 C 53.615 169.110,53.776 171.075,53.856 171.167 C 54.132 171.486,53.903 164.992,53.596 163.800 C 53.425 163.140,53.382 164.490,53.499 166.800 M221.800 173.676 C 221.644 176.604,221.588 179.450,221.675 180.000 C 221.763 180.550,221.979 178.243,222.157 174.873 C 222.334 171.503,222.390 168.657,222.282 168.548 C 222.173 168.440,221.957 170.747,221.800 173.676 M247.078 172.700 C 245.683 174.845,243.383 177.860,241.967 179.400 C 240.551 180.940,238.978 182.830,238.472 183.600 L 237.551 185.000 238.676 183.644 C 239.294 182.899,240.953 181.009,242.363 179.444 C 243.773 177.880,245.940 175.070,247.178 173.200 C 250.053 168.858,250.088 168.800,249.831 168.800 C 249.712 168.800,248.474 170.555,247.078 172.700 M147.398 171.359 C 147.179 171.666,146.583 172.476,146.073 173.159 C 144.671 175.035,145.302 174.646,146.979 172.600 C 147.790 171.610,148.306 170.800,148.125 170.800 C 147.944 170.800,147.617 171.051,147.398 171.359 M196.177 185.000 C 196.177 191.380,196.232 193.934,196.299 190.676 C 196.367 187.417,196.366 182.197,196.299 179.076 C 196.231 175.954,196.176 178.620,196.177 185.000 M142.083 177.552 C 140.698 179.020,138.049 181.288,136.196 182.591 C 134.343 183.894,132.904 185.037,132.998 185.131 C 133.360 185.493,139.558 180.661,142.398 177.802 C 144.038 176.151,145.204 174.818,144.990 174.841 C 144.775 174.863,143.467 176.083,142.083 177.552 M279.287 176.616 C 277.590 178.923,277.883 178.914,279.779 176.600 C 280.590 175.610,281.107 174.807,280.927 174.816 C 280.747 174.824,280.009 175.634,279.287 176.616 M54.174 187.000 C 54.175 192.720,54.231 195.004,54.299 192.076 C 54.368 189.148,54.367 184.468,54.299 181.676 C 54.230 178.884,54.174 181.280,54.174 187.000 M276.496 180.205 C 275.332 182.003,275.600 182.000,276.973 180.200 C 277.560 179.430,277.897 178.802,277.720 178.805 C 277.544 178.808,276.993 179.438,276.496 180.205 M221.059 183.300 C 220.401 188.777,220.761 202.351,221.576 202.787 C 222.092 203.063,222.434 203.068,222.599 202.801 C 222.736 202.580,222.457 202.400,221.977 202.400 L 221.106 202.400 221.263 191.800 C 221.434 180.301,221.432 180.200,221.059 183.300 M273.400 184.294 C 271.429 187.073,266.414 193.300,265.843 193.678 C 265.612 193.831,265.520 194.053,265.638 194.171 C 265.867 194.400,268.587 191.174,272.946 185.500 C 274.426 183.575,275.493 182.009,275.318 182.019 C 275.143 182.030,274.280 183.053,273.400 184.294 M128.933 186.125 C 126.983 186.967,126.439 188.400,128.069 188.400 C 128.351 188.400,128.335 188.203,128.019 187.823 C 127.544 187.250,129.471 186.060,131.800 185.489 L 132.600 185.293 131.800 185.262 C 131.360 185.246,130.070 185.634,128.933 186.125 M235.876 187.300 C 235.538 187.795,234.776 188.740,234.184 189.400 C 231.488 192.403,225.600 199.554,225.600 199.823 C 225.600 200.100,226.034 199.647,227.601 197.734 C 230.934 193.666,232.013 192.387,233.329 190.949 C 234.779 189.363,236.800 186.786,236.800 186.522 C 236.800 186.180,236.428 186.494,235.876 187.300 M135.400 191.200 C 135.536 191.420,136.042 191.587,136.524 191.572 C 137.369 191.545,137.371 191.531,136.600 191.200 C 135.499 190.727,135.108 190.727,135.400 191.200 M138.200 192.000 C 138.336 192.220,138.842 192.387,139.324 192.372 C 140.169 192.345,140.171 192.331,139.400 192.000 C 138.299 191.527,137.908 191.527,138.200 192.000 M141.200 192.800 C 141.750 192.976,142.560 193.126,143.000 193.132 L 143.800 193.144 143.000 192.800 C 142.560 192.611,141.750 192.462,141.200 192.468 L 140.200 192.480 141.200 192.800 M146.003 194.277 C 146.006 194.606,148.045 195.688,148.259 195.475 C 148.323 195.411,147.841 195.042,147.188 194.656 C 146.534 194.270,146.001 194.100,146.003 194.277 M261.281 198.285 C 259.676 199.941,258.425 201.358,258.502 201.436 C 258.579 201.513,260.069 200.141,261.812 198.388 C 263.555 196.635,264.805 195.217,264.591 195.237 C 264.376 195.257,262.886 196.629,261.281 198.285 M148.800 195.785 C 148.800 196.064,152.895 198.038,153.084 197.850 C 153.163 197.770,152.547 197.387,151.714 196.999 C 150.881 196.611,149.885 196.131,149.500 195.933 C 149.115 195.734,148.800 195.668,148.800 195.785 M196.575 207.200 C 196.575 213.030,196.631 215.415,196.699 212.500 C 196.767 209.585,196.767 204.815,196.699 201.900 C 196.631 198.985,196.575 201.370,196.575 207.200 M153.800 198.276 C 154.641 199.102,162.111 204.103,161.833 203.654 C 161.673 203.394,159.979 202.137,158.071 200.862 C 154.264 198.318,153.168 197.655,153.800 198.276 M224.034 201.353 L 223.069 202.600 224.213 201.512 C 224.843 200.914,225.277 200.353,225.179 200.265 C 225.080 200.177,224.565 200.667,224.034 201.353 M254.946 204.613 C 253.436 206.293,252.050 207.967,251.867 208.333 C 251.683 208.700,252.223 208.197,253.067 207.215 C 253.910 206.233,255.382 204.645,256.339 203.687 C 257.295 202.728,257.991 201.857,257.885 201.752 C 257.779 201.646,256.457 202.934,254.946 204.613 M77.467 204.267 C 77.320 204.413,77.236 206.798,77.281 209.567 L 77.362 214.600 77.581 209.600 L 77.800 204.600 88.507 204.493 C 97.957 204.399,99.366 204.467,100.507 205.069 C 101.413 205.546,102.939 205.778,105.600 205.843 L 109.400 205.936 105.600 205.609 C 103.503 205.429,101.262 204.996,100.600 204.644 C 99.355 203.981,78.099 203.635,77.467 204.267 M162.415 204.271 C 162.423 204.452,163.032 205.057,163.770 205.615 C 165.658 207.044,168.683 210.680,168.985 211.883 C 169.125 212.439,170.118 214.196,171.192 215.788 C 172.266 217.380,173.451 219.616,173.824 220.757 C 174.197 221.898,174.595 222.738,174.709 222.624 C 175.119 222.214,173.451 218.541,171.610 215.800 C 170.575 214.260,169.610 212.520,169.465 211.933 C 169.046 210.239,162.357 202.969,162.415 204.271 M109.633 206.144 C 109.725 206.224,110.610 206.396,111.600 206.527 C 112.802 206.686,113.134 206.647,112.600 206.410 C 111.836 206.072,109.286 205.843,109.633 206.144 M114.200 207.080 C 114.640 207.183,115.789 207.529,116.753 207.847 C 117.718 208.166,118.580 208.354,118.669 208.264 C 118.910 208.023,114.966 206.793,114.125 206.846 C 113.504 206.886,113.514 206.920,114.200 207.080 M119.800 208.800 C 120.901 209.273,121.292 209.273,121.000 208.800 C 120.864 208.580,120.358 208.413,119.876 208.428 C 119.031 208.455,119.029 208.469,119.800 208.800 M121.633 209.352 C 122.064 209.744,126.151 211.636,125.800 211.281 C 125.209 210.682,122.447 209.200,121.921 209.200 C 121.671 209.200,121.542 209.268,121.633 209.352 M249.648 211.383 C 247.797 213.834,247.728 214.078,248.664 214.851 C 249.271 215.352,249.281 215.323,248.779 214.517 C 248.293 213.736,248.324 213.527,249.049 212.717 C 250.086 211.557,251.712 209.200,251.475 209.200 C 251.377 209.200,250.554 210.182,249.648 211.383 M127.837 213.239 C 130.811 216.438,131.262 216.989,131.898 218.200 C 132.244 218.860,132.760 220.300,133.045 221.400 L 133.563 223.400 133.334 221.600 C 132.972 218.754,130.033 214.251,127.200 212.202 C 126.641 211.798,126.922 212.256,127.837 213.239 M250.030 216.647 C 250.887 217.572,255.027 220.854,257.963 222.935 C 259.918 224.321,256.201 221.148,253.270 218.928 C 251.659 217.708,250.245 216.460,250.127 216.155 C 250.010 215.850,249.722 215.600,249.487 215.600 C 249.253 215.600,249.497 216.071,250.030 216.647 M54.283 221.800 C 54.403 224.660,54.569 227.075,54.651 227.167 C 54.943 227.493,54.735 220.169,54.402 218.400 C 54.183 217.237,54.141 218.440,54.283 221.800 M196.160 223.800 C 196.161 227.100,196.222 228.397,196.298 226.682 C 196.373 224.967,196.372 222.267,196.297 220.682 C 196.221 219.097,196.159 220.500,196.160 223.800 M76.681 222.556 C 76.527 223.632,76.425 225.882,76.456 227.556 C 76.511 230.516,76.522 230.479,76.858 226.200 C 77.232 221.433,77.134 219.408,76.681 222.556 M133.688 225.200 C 133.678 226.190,133.810 227.900,133.982 229.000 L 134.293 231.000 134.312 229.200 C 134.322 228.210,134.190 226.500,134.018 225.400 L 133.707 223.400 133.688 225.200 M174.806 224.633 C 174.809 225.275,174.996 226.070,175.221 226.400 C 175.514 226.830,175.554 226.546,175.362 225.400 C 175.030 223.416,174.798 223.096,174.806 224.633 M260.000 224.586 C 260.000 224.817,261.199 225.923,263.900 228.183 C 266.216 230.122,265.275 229.009,262.600 226.645 C 261.170 225.382,260.000 224.455,260.000 224.586 M175.614 227.633 C 175.606 227.982,175.735 228.400,175.900 228.562 C 176.065 228.724,176.411 229.429,176.670 230.129 C 176.928 230.828,177.147 231.130,177.156 230.800 C 177.165 230.470,176.825 229.480,176.400 228.600 C 175.975 227.720,175.621 227.285,175.614 227.633 M265.779 229.566 C 266.277 230.372,274.400 235.524,274.400 235.035 C 274.400 234.925,273.185 234.123,271.700 233.253 C 270.215 232.383,268.215 231.099,267.254 230.400 C 266.294 229.701,265.631 229.326,265.779 229.566 M196.707 247.800 C 196.765 257.480,196.866 266.390,196.931 267.600 C 196.996 268.810,197.069 261.700,197.095 251.800 C 197.120 241.900,197.019 232.990,196.870 232.000 C 196.722 231.010,196.648 238.120,196.707 247.800 M54.944 234.800 C 54.944 236.890,55.012 237.745,55.094 236.700 C 55.176 235.655,55.176 233.945,55.094 232.900 C 55.012 231.855,54.944 232.710,54.944 234.800 M177.293 234.800 C 177.286 236.010,177.414 238.530,177.578 240.400 L 177.876 243.800 177.903 240.200 C 177.918 238.220,177.790 235.700,177.618 234.600 L 177.307 232.600 177.293 234.800 M134.557 238.400 C 134.557 241.370,134.620 242.585,134.697 241.100 C 134.774 239.615,134.774 237.185,134.697 235.700 C 134.620 234.215,134.557 235.430,134.557 238.400 M76.128 236.400 C 76.128 237.830,76.201 238.415,76.289 237.700 C 76.378 236.985,76.378 235.815,76.289 235.100 C 76.201 234.385,76.128 234.970,76.128 236.400 M277.200 237.130 C 277.200 237.341,277.425 237.601,277.700 237.707 C 278.138 237.876,284.672 242.992,285.200 243.579 C 285.926 244.387,292.421 249.607,293.400 250.171 C 294.339 250.711,294.414 250.720,293.748 250.213 C 293.279 249.857,289.859 247.035,286.148 243.942 C 278.544 237.604,277.200 236.581,277.200 237.130 M54.254 241.954 C 54.100 242.918,54.058 243.791,54.161 243.894 C 54.430 244.163,54.915 241.345,54.707 240.722 C 54.612 240.436,54.408 240.990,54.254 241.954 M76.688 256.600 C 76.919 272.260,76.782 271.606,79.859 271.831 L 81.800 271.974 79.600 271.479 L 77.400 270.984 77.115 257.592 C 76.958 250.226,76.751 243.840,76.656 243.400 C 76.561 242.960,76.575 248.900,76.688 256.600 M133.800 247.200 C 133.645 248.328,133.608 249.341,133.718 249.451 C 133.828 249.561,134.045 248.728,134.200 247.600 C 134.355 246.472,134.392 245.459,134.282 245.349 C 134.172 245.239,133.955 246.072,133.800 247.200 M53.728 248.400 C 53.728 249.830,53.801 250.415,53.889 249.700 C 53.978 248.985,53.978 247.815,53.889 247.100 C 53.801 246.385,53.728 246.970,53.728 248.400 M228.874 249.900 L 228.948 252.200 229.096 250.080 C 229.230 248.145,229.316 247.983,230.072 248.223 C 230.626 248.399,230.810 248.339,230.626 248.043 C 229.743 246.614,228.800 247.613,228.874 249.900 M133.057 250.914 C 132.820 251.859,131.953 253.919,130.329 257.400 C 129.967 258.177,129.973 258.178,130.565 257.441 C 131.420 256.377,133.680 250.840,133.491 250.274 C 133.406 250.017,133.210 250.305,133.057 250.914 M234.800 250.158 C 234.800 250.245,235.665 250.769,236.723 251.322 C 241.352 253.742,242.755 254.655,246.981 257.995 C 248.872 259.490,252.800 261.841,252.800 261.478 C 252.800 261.383,251.664 260.641,250.275 259.829 C 248.886 259.016,247.131 257.810,246.375 257.148 C 243.334 254.487,234.800 249.333,234.800 250.158 M177.388 252.538 C 177.239 253.535,177.199 254.586,177.300 254.875 C 177.400 255.164,177.618 254.443,177.782 253.274 C 177.947 252.105,177.987 251.054,177.871 250.938 C 177.755 250.822,177.538 251.542,177.388 252.538 M294.800 250.933 C 294.800 251.006,295.694 251.645,296.787 252.353 C 297.879 253.061,299.094 254.041,299.487 254.531 C 300.575 255.890,303.565 258.168,303.867 257.867 C 304.013 257.720,303.927 257.600,303.674 257.600 C 303.422 257.600,301.997 256.464,300.507 255.075 C 297.233 252.021,294.800 250.256,294.800 250.933 M54.035 258.233 C 54.054 261.075,54.202 264.300,54.363 265.400 C 54.539 266.605,54.625 264.651,54.579 260.485 C 54.537 256.681,54.390 253.456,54.251 253.318 C 54.113 253.180,54.016 255.392,54.035 258.233 M228.276 254.410 C 228.130 254.955,228.027 255.850,228.046 256.400 C 228.071 257.118,228.184 256.957,228.449 255.827 C 228.855 254.095,228.700 252.825,228.276 254.410 M176.649 257.015 C 176.512 257.373,176.415 257.966,176.434 258.333 C 176.453 258.700,176.627 258.469,176.821 257.820 C 177.198 256.558,177.065 255.933,176.649 257.015 M128.409 260.784 C 126.760 263.716,124.479 265.991,121.600 267.575 C 120.390 268.241,119.580 268.787,119.800 268.789 C 120.442 268.795,124.091 266.541,125.417 265.320 C 127.139 263.734,130.296 258.963,129.892 258.558 C 129.810 258.477,129.143 259.478,128.409 260.784 M307.600 260.359 C 308.590 261.267,310.930 263.308,312.800 264.896 C 314.670 266.484,317.550 268.953,319.200 270.382 C 320.850 271.811,321.750 272.466,321.200 271.839 C 320.650 271.211,317.616 268.516,314.459 265.849 C 307.616 260.070,304.995 257.972,307.600 260.359 M227.500 262.759 C 227.335 264.166,227.225 266.686,227.256 268.359 L 227.311 271.400 227.665 267.200 C 228.088 262.168,227.963 258.806,227.500 262.759 M255.011 262.939 C 256.919 264.241,258.000 264.878,258.000 264.699 C 258.000 264.445,254.904 262.400,254.520 262.400 C 254.356 262.400,254.577 262.642,255.011 262.939 M174.268 263.100 C 174.169 263.265,173.708 264.075,173.244 264.900 C 171.112 268.689,170.646 269.479,169.311 271.566 C 168.528 272.790,168.158 273.566,168.489 273.292 C 169.338 272.588,175.074 262.800,174.638 262.800 C 174.533 262.800,174.366 262.935,174.268 263.100 M262.941 267.678 C 264.060 268.465,276.511 276.585,277.200 276.976 C 279.054 278.030,276.349 276.070,271.600 272.919 C 267.172 269.981,260.315 265.830,262.941 267.678 M114.600 270.000 L 113.800 270.344 114.600 270.344 C 115.040 270.344,115.760 270.189,116.200 270.000 L 117.000 269.656 116.200 269.656 C 115.760 269.656,115.040 269.811,114.600 270.000 M197.493 277.400 C 197.606 281.580,197.766 285.075,197.849 285.167 C 198.100 285.444,197.932 277.659,197.599 273.600 C 197.389 271.031,197.355 272.261,197.493 277.400 M111.800 270.800 C 111.296 271.017,111.222 271.144,111.600 271.144 C 111.930 271.144,112.560 270.989,113.000 270.800 C 113.504 270.583,113.578 270.456,113.200 270.456 C 112.870 270.456,112.240 270.611,111.800 270.800 M104.200 271.622 C 103.464 271.822,104.238 271.863,106.200 271.726 C 107.960 271.603,109.475 271.435,109.567 271.351 C 109.879 271.068,105.405 271.293,104.200 271.622 M54.262 283.878 C 53.965 297.087,53.836 296.459,56.876 296.639 L 59.000 296.765 57.200 296.344 C 56.210 296.112,55.181 295.858,54.912 295.779 C 54.536 295.667,54.482 292.944,54.677 283.817 C 54.815 277.318,54.838 272.000,54.729 272.000 C 54.619 272.000,54.409 277.345,54.262 283.878 M84.800 272.379 C 85.779 272.713,89.896 272.947,89.567 272.649 C 89.475 272.566,88.140 272.395,86.600 272.268 C 84.832 272.122,84.169 272.163,84.800 272.379 M98.200 272.400 L 96.600 272.686 98.200 272.703 C 99.080 272.713,100.250 272.576,100.800 272.400 L 101.800 272.080 100.800 272.097 C 100.250 272.106,99.080 272.242,98.200 272.400 M322.400 273.030 C 322.400 273.339,324.022 274.823,325.700 276.050 C 327.484 277.355,326.964 276.694,324.600 274.653 C 323.390 273.609,322.400 272.878,322.400 273.030 M165.029 276.838 C 162.006 279.851,161.735 280.640,164.665 277.900 C 166.191 276.472,168.357 273.909,167.927 274.038 C 167.857 274.060,166.553 275.320,165.029 276.838 M226.668 276.559 C 226.520 277.633,226.426 280.062,226.457 281.956 C 226.514 285.317,226.523 285.279,226.855 280.400 C 227.212 275.142,227.120 273.258,226.668 276.559 M328.844 278.597 C 329.810 279.365,331.176 280.269,331.881 280.606 C 332.585 280.943,333.665 281.634,334.281 282.140 C 334.896 282.646,336.300 283.657,337.400 284.386 C 338.500 285.116,340.299 286.542,341.399 287.556 L 343.397 289.400 341.799 287.660 C 340.199 285.918,336.565 283.205,331.807 280.200 C 330.413 279.320,328.928 278.285,328.505 277.900 C 328.083 277.515,327.591 277.200,327.412 277.200 C 327.234 277.200,327.878 277.829,328.844 278.597 M160.826 281.322 L 159.851 282.600 161.126 281.425 C 162.451 280.203,162.603 279.985,162.100 280.022 C 161.935 280.034,161.362 280.619,160.826 281.322 M284.000 281.299 C 284.000 281.405,286.025 282.800,288.500 284.400 C 290.975 286.000,294.575 288.362,296.500 289.650 C 298.425 290.937,299.997 291.858,299.994 291.695 C 299.990 291.533,298.325 290.337,296.294 289.038 C 292.954 286.902,287.989 283.702,285.100 281.823 C 284.495 281.430,284.000 281.194,284.000 281.299 M158.742 283.733 C 158.379 284.232,156.905 285.621,155.465 286.820 C 154.025 288.019,152.837 289.158,152.824 289.351 C 152.811 289.544,153.565 289.002,154.500 288.148 C 155.435 287.293,156.650 286.227,157.200 285.779 C 158.632 284.614,160.205 282.798,159.770 282.813 C 159.566 282.819,159.104 283.234,158.742 283.733 M198.085 294.353 C 198.005 302.400,198.049 302.985,198.833 304.253 L 199.665 305.600 205.533 305.512 L 211.400 305.423 205.590 305.301 C 198.084 305.144,198.664 306.006,198.385 294.600 L 198.170 285.800 198.085 294.353 M149.700 290.635 C 148.545 291.178,147.600 291.701,147.600 291.798 C 147.600 292.030,148.527 291.666,150.769 290.552 C 153.240 289.324,152.340 289.394,149.700 290.635 M226.083 294.441 C 226.037 295.894,225.913 298.234,225.806 299.641 C 225.631 301.959,225.651 302.049,226.020 300.604 C 226.244 299.726,226.369 297.386,226.297 295.404 C 226.186 292.353,226.153 292.205,226.083 294.441 M346.324 292.600 C 346.526 293.040,346.792 293.670,346.914 294.000 C 347.107 294.518,347.141 294.515,347.168 293.976 C 347.186 293.634,346.920 293.004,346.578 292.576 C 345.966 291.812,345.962 291.813,346.324 292.600 M136.600 295.600 L 135.800 295.944 136.600 295.944 C 137.040 295.944,137.760 295.789,138.200 295.600 L 139.000 295.256 138.200 295.256 C 137.760 295.256,137.040 295.411,136.600 295.600 M130.600 296.400 L 129.800 296.744 130.600 296.725 C 131.040 296.714,131.940 296.568,132.600 296.400 L 133.800 296.095 132.600 296.075 C 131.940 296.065,131.040 296.211,130.600 296.400 M61.800 297.200 C 62.460 297.368,63.450 297.509,64.000 297.513 L 65.000 297.520 64.000 297.200 C 63.450 297.024,62.460 296.883,61.800 296.887 L 60.600 296.895 61.800 297.200 M125.800 297.200 L 125.000 297.544 125.800 297.525 C 126.240 297.514,127.140 297.368,127.800 297.200 L 129.000 296.895 127.800 296.875 C 127.140 296.865,126.240 297.011,125.800 297.200 M343.805 299.100 C 342.554 300.577,342.325 300.971,343.165 300.200 C 344.405 299.062,346.227 296.800,345.904 296.800 C 345.821 296.800,344.876 297.835,343.805 299.100 M69.000 298.018 C 70.100 298.190,71.630 298.325,72.400 298.319 L 73.800 298.308 72.200 297.977 C 71.320 297.795,69.790 297.660,68.800 297.676 L 67.000 297.707 69.000 298.018 M120.400 298.000 L 119.400 298.320 120.400 298.313 C 120.950 298.309,121.940 298.168,122.600 298.000 L 123.800 297.695 122.600 297.687 C 121.940 297.683,120.950 297.824,120.400 298.000 M310.833 297.749 C 311.245 298.117,313.600 299.200,313.600 299.021 C 313.600 298.790,311.382 297.600,310.953 297.600 C 310.796 297.600,310.742 297.667,310.833 297.749 M76.800 298.800 C 78.168 299.238,79.219 299.238,78.200 298.800 C 77.760 298.611,77.040 298.462,76.600 298.468 C 75.957 298.477,75.996 298.543,76.800 298.800 M115.400 298.800 L 114.200 299.105 115.400 299.113 C 116.060 299.117,117.050 298.976,117.600 298.800 L 118.600 298.480 117.600 298.487 C 117.050 298.491,116.060 298.632,115.400 298.800 M109.000 299.600 L 107.800 299.905 109.000 299.930 C 109.660 299.943,110.920 299.805,111.800 299.623 L 113.400 299.292 111.800 299.293 C 110.920 299.294,109.660 299.432,109.000 299.600 M82.973 300.538 C 83.763 300.727,88.063 300.706,92.695 300.490 L 101.000 300.104 91.278 300.152 C 85.025 300.183,82.062 300.321,82.973 300.538 M317.600 300.981 C 317.600 301.081,318.365 301.502,319.300 301.916 C 320.235 302.331,321.247 302.969,321.549 303.335 C 321.851 303.701,322.270 304.000,322.480 304.000 C 323.028 304.000,320.830 302.231,319.320 301.456 C 317.998 300.779,317.600 300.669,317.600 300.981 M339.839 303.817 C 337.971 306.423,333.468 311.200,332.880 311.200 C 332.650 311.200,331.592 310.546,330.531 309.747 C 328.705 308.372,328.662 308.360,329.747 309.518 C 332.201 312.136,333.002 312.091,335.763 309.175 C 338.535 306.248,342.209 301.590,341.723 301.619 C 341.546 301.630,340.697 302.619,339.839 303.817 M224.176 304.784 C 223.965 304.995,222.084 305.227,219.996 305.301 L 216.200 305.434 220.051 305.517 C 223.061 305.582,224.011 305.469,224.400 305.000 C 224.950 304.338,224.783 304.177,224.176 304.784 M323.600 305.022 C 324.150 305.410,325.455 306.329,326.500 307.063 C 327.545 307.798,328.398 308.264,328.397 308.099 C 328.395 307.935,327.286 307.080,325.932 306.200 C 323.425 304.570,321.784 303.741,323.600 305.022 M212.707 305.090 C 213.426 305.179,214.506 305.177,215.107 305.086 C 215.708 304.995,215.120 304.922,213.800 304.924 C 212.480 304.926,211.988 305.001,212.707 305.090 " stroke="none" fill="#a9d9fa" fill-rule="evenodd"></path><path id="path4" d="M306.800 88.963 C 306.800 89.043,307.250 89.403,307.800 89.763 C 308.350 90.124,308.800 90.263,308.800 90.073 C 308.800 89.884,308.350 89.523,307.800 89.273 C 307.250 89.022,306.800 88.883,306.800 88.963 M55.359 98.162 C 55.241 98.471,55.207 99.326,55.283 100.062 C 55.406 101.235,55.447 101.166,55.615 99.500 C 55.811 97.552,55.739 97.174,55.359 98.162 M99.905 97.883 C 100.402 97.979,101.122 97.975,101.505 97.875 C 101.887 97.775,101.480 97.696,100.600 97.701 C 99.720 97.705,99.407 97.787,99.905 97.883 M103.700 98.287 C 104.305 98.378,105.295 98.378,105.900 98.287 C 106.505 98.195,106.010 98.120,104.800 98.120 C 103.590 98.120,103.095 98.195,103.700 98.287 M109.400 98.789 C 110.616 99.109,114.273 99.322,113.967 99.055 C 113.875 98.975,112.540 98.811,111.000 98.691 C 109.302 98.559,108.672 98.598,109.400 98.789 M118.700 99.882 C 119.195 99.978,120.005 99.978,120.500 99.882 C 120.995 99.787,120.590 99.709,119.600 99.709 C 118.610 99.709,118.205 99.787,118.700 99.882 M122.000 100.146 C 122.000 100.373,125.836 101.604,126.475 101.582 C 126.764 101.573,126.307 101.318,125.459 101.016 C 123.493 100.315,122.000 99.939,122.000 100.146 M198.707 101.490 C 199.426 101.579,200.506 101.577,201.107 101.486 C 201.708 101.395,201.120 101.322,199.800 101.324 C 198.480 101.326,197.988 101.401,198.707 101.490 M204.105 101.887 C 204.714 101.979,205.614 101.977,206.105 101.882 C 206.597 101.787,206.100 101.711,205.000 101.714 C 203.900 101.717,203.497 101.795,204.105 101.887 M212.500 102.297 C 213.985 102.374,216.415 102.374,217.900 102.297 C 219.385 102.220,218.170 102.157,215.200 102.157 C 212.230 102.157,211.015 102.220,212.500 102.297 M221.300 102.676 C 221.685 102.776,222.315 102.776,222.700 102.676 C 223.085 102.575,222.770 102.493,222.000 102.493 C 221.230 102.493,220.915 102.575,221.300 102.676 M134.088 104.613 C 134.686 105.243,135.247 105.677,135.335 105.579 C 135.423 105.480,134.933 104.965,134.247 104.434 L 133.000 103.469 134.088 104.613 M195.235 112.833 C 195.254 114.465,195.418 116.700,195.599 117.800 C 195.815 119.113,195.854 118.152,195.713 115.000 C 195.471 109.613,195.181 108.300,195.235 112.833 M54.649 111.015 C 54.512 111.373,54.424 112.326,54.453 113.133 C 54.501 114.444,54.538 114.387,54.795 112.600 C 55.103 110.471,55.055 109.958,54.649 111.015 M143.600 110.963 C 143.600 111.043,144.050 111.403,144.600 111.763 C 145.150 112.124,145.600 112.263,145.600 112.073 C 145.600 111.884,145.150 111.523,144.600 111.273 C 144.050 111.022,143.600 110.883,143.600 110.963 M287.673 111.800 C 287.422 112.350,287.283 112.800,287.363 112.800 C 287.443 112.800,287.803 112.350,288.163 111.800 C 288.524 111.250,288.663 110.800,288.473 110.800 C 288.284 110.800,287.923 111.250,287.673 111.800 M224.661 115.092 C 224.521 116.581,224.433 119.960,224.466 122.600 C 224.521 126.982,224.552 126.756,224.824 120.000 C 225.139 112.198,225.086 110.600,224.661 115.092 M285.853 114.500 L 285.133 115.800 285.958 114.800 C 286.689 113.913,287.014 113.200,286.686 113.200 C 286.624 113.200,286.249 113.785,285.853 114.500 M319.853 116.391 C 319.274 117.267,318.800 118.117,318.800 118.280 C 318.800 118.444,319.042 118.223,319.339 117.789 C 320.641 115.881,321.278 114.800,321.099 114.800 C 320.993 114.800,320.432 115.516,319.853 116.391 M283.687 117.700 C 282.227 119.856,281.912 120.400,282.120 120.400 C 282.212 120.400,282.944 119.410,283.747 118.200 C 284.551 116.990,285.125 116.000,285.023 116.000 C 284.922 116.000,284.320 116.765,283.687 117.700 M54.164 124.600 C 54.163 128.340,54.223 129.924,54.297 128.120 C 54.371 126.315,54.372 123.255,54.298 121.320 C 54.225 119.384,54.164 120.860,54.164 124.600 M277.673 126.600 C 277.422 127.150,277.283 127.600,277.363 127.600 C 277.443 127.600,277.803 127.150,278.163 126.600 C 278.524 126.050,278.663 125.600,278.473 125.600 C 278.284 125.600,277.923 126.050,277.673 126.600 M154.887 129.800 C 154.891 130.240,155.032 131.140,155.200 131.800 C 155.474 132.878,155.506 132.898,155.513 132.000 C 155.517 131.450,155.376 130.550,155.200 130.000 C 154.949 129.216,154.881 129.173,154.887 129.800 M80.806 131.100 C 80.810 131.563,80.914 131.641,81.111 131.330 C 81.276 131.071,82.128 130.786,83.005 130.697 C 84.585 130.536,84.582 130.534,82.700 130.467 C 81.129 130.412,80.801 130.521,80.806 131.100 M86.500 130.676 C 86.885 130.776,87.515 130.776,87.900 130.676 C 88.285 130.575,87.970 130.493,87.200 130.493 C 86.430 130.493,86.115 130.575,86.500 130.676 M224.054 131.800 C 224.019 132.240,223.889 133.050,223.767 133.600 C 223.575 134.463,223.607 134.503,223.998 133.890 C 224.247 133.499,224.377 132.689,224.286 132.090 C 224.178 131.379,224.097 131.279,224.054 131.800 M92.600 132.252 C 92.820 132.445,93.720 133.232,94.599 134.001 L 96.198 135.400 94.999 134.066 C 94.340 133.332,93.440 132.545,93.000 132.317 C 92.560 132.089,92.380 132.060,92.600 132.252 M270.153 137.700 C 268.776 140.036,268.686 140.235,269.387 139.400 C 270.200 138.432,270.900 137.200,270.638 137.200 C 270.533 137.200,270.315 137.425,270.153 137.700 M155.737 141.800 C 155.739 143.560,155.809 144.230,155.893 143.289 C 155.978 142.349,155.977 140.909,155.891 140.089 C 155.805 139.270,155.736 140.040,155.737 141.800 M222.992 144.592 C 222.832 147.146,222.795 149.329,222.910 149.443 C 223.024 149.558,223.248 147.562,223.408 145.008 C 223.568 142.454,223.605 140.271,223.490 140.157 C 223.376 140.042,223.152 142.038,222.992 144.592 M266.483 143.300 C 264.274 146.599,263.680 147.601,264.287 147.000 C 264.924 146.369,268.847 140.400,268.624 140.400 C 268.514 140.400,267.551 141.705,266.483 143.300 M80.479 143.441 C 80.436 144.784,80.316 147.034,80.213 148.441 L 80.026 151.000 80.426 148.800 C 80.647 147.590,80.766 145.340,80.693 143.800 L 80.559 141.000 80.479 143.441 M98.696 143.046 C 98.812 144.121,98.972 145.075,99.053 145.167 C 99.372 145.529,99.165 142.165,98.837 141.646 C 98.622 141.307,98.568 141.851,98.696 143.046 M54.101 143.800 C 54.105 144.680,54.187 144.993,54.283 144.495 C 54.379 143.998,54.375 143.278,54.275 142.895 C 54.175 142.513,54.096 142.920,54.101 143.800 M53.750 149.800 C 53.751 152.220,53.816 153.158,53.896 151.885 C 53.976 150.612,53.975 148.632,53.894 147.485 C 53.814 146.338,53.749 147.380,53.750 149.800 M99.458 147.200 C 99.775 148.925,100.002 149.251,99.994 147.967 C 99.991 147.435,99.811 146.730,99.594 146.400 C 99.318 145.978,99.277 146.215,99.458 147.200 M300.893 147.100 C 299.857 148.596,299.521 149.200,299.723 149.200 C 299.817 149.200,300.370 148.480,300.953 147.600 C 302.136 145.812,302.084 145.379,300.893 147.100 M298.600 150.800 C 298.259 151.460,298.069 152.000,298.179 152.000 C 298.289 152.000,298.659 151.460,299.000 150.800 C 299.341 150.140,299.531 149.600,299.421 149.600 C 299.311 149.600,298.941 150.140,298.600 150.800 M155.249 151.000 C 155.216 151.440,155.096 152.250,154.983 152.800 L 154.777 153.800 155.206 152.819 C 155.442 152.279,155.561 151.469,155.472 151.019 C 155.313 150.221,155.307 150.221,155.249 151.000 M99.654 151.467 C 99.625 151.944,99.496 152.664,99.370 153.067 C 99.152 153.761,99.164 153.762,99.596 153.088 C 99.847 152.697,99.975 151.977,99.881 151.488 C 99.709 150.601,99.709 150.601,99.654 151.467 M296.253 154.900 L 295.533 156.200 296.358 155.200 C 297.089 154.313,297.414 153.600,297.086 153.600 C 297.024 153.600,296.649 154.185,296.253 154.900 M154.229 156.629 C 154.081 157.215,154.038 157.772,154.132 157.866 C 154.227 157.960,154.424 157.558,154.571 156.971 C 154.719 156.385,154.762 155.828,154.668 155.734 C 154.573 155.640,154.376 156.042,154.229 156.629 M52.920 159.600 C 52.920 160.810,52.995 161.305,53.087 160.700 C 53.178 160.095,53.178 159.105,53.087 158.500 C 52.995 157.895,52.920 158.390,52.920 159.600 M80.282 161.200 C 80.404 162.850,80.571 164.275,80.652 164.367 C 80.928 164.677,80.707 160.608,80.383 159.400 C 80.186 158.668,80.147 159.369,80.282 161.200 M195.452 161.300 C 195.134 162.487,195.183 165.215,195.539 166.117 C 195.695 166.511,195.817 165.386,195.811 163.617 C 195.799 160.054,195.794 160.024,195.452 161.300 M252.674 163.233 C 252.055 164.095,251.628 164.800,251.727 164.800 C 252.003 164.800,254.099 161.966,253.940 161.807 C 253.863 161.730,253.293 162.372,252.674 163.233 M52.942 166.200 C 52.941 168.180,53.008 169.040,53.092 168.112 C 53.176 167.184,53.177 165.564,53.095 164.512 C 53.012 163.460,52.943 164.220,52.942 166.200 M85.200 166.000 L 80.600 166.240 85.076 166.320 C 87.719 166.367,89.654 166.236,89.800 166.000 C 89.936 165.780,89.992 165.636,89.924 165.680 C 89.856 165.724,87.730 165.868,85.200 166.000 M150.425 168.100 C 149.637 169.667,149.632 169.722,150.364 168.800 C 151.071 167.909,151.724 166.400,151.403 166.400 C 151.336 166.400,150.896 167.165,150.425 168.100 M249.224 168.518 C 248.923 169.003,248.415 169.805,248.093 170.300 C 247.771 170.795,247.595 171.200,247.701 171.200 C 247.983 171.200,250.086 167.953,249.915 167.781 C 249.835 167.702,249.524 168.033,249.224 168.518 M53.309 171.600 C 53.309 172.590,53.387 172.995,53.482 172.500 C 53.578 172.005,53.578 171.195,53.482 170.700 C 53.387 170.205,53.309 170.610,53.309 171.600 M283.601 172.198 C 283.086 172.748,282.739 173.264,282.832 173.346 C 282.924 173.428,283.419 172.978,283.930 172.347 C 285.076 170.935,284.874 170.844,283.601 172.198 M222.465 174.600 C 222.425 175.480,222.306 176.920,222.202 177.800 L 222.012 179.400 222.423 177.800 C 222.648 176.920,222.767 175.480,222.686 174.600 L 222.540 173.000 222.465 174.600 M280.621 175.800 C 279.810 176.790,279.293 177.593,279.473 177.584 C 279.799 177.569,282.574 174.000,282.261 174.000 C 282.170 174.000,281.433 174.810,280.621 175.800 M195.457 177.100 C 195.127 179.096,195.174 188.592,195.523 190.558 C 195.675 191.415,195.800 188.400,195.800 183.858 C 195.800 179.316,195.779 175.600,195.752 175.600 C 195.726 175.600,195.593 176.275,195.457 177.100 M53.778 188.000 C 53.778 194.710,53.832 197.455,53.899 194.100 C 53.966 190.745,53.966 185.255,53.899 181.900 C 53.832 178.545,53.778 181.290,53.778 188.000 M141.400 178.952 C 139.721 180.636,139.240 181.261,140.200 180.513 C 142.101 179.033,145.124 175.969,144.581 176.072 C 144.372 176.112,142.940 177.408,141.400 178.952 M241.781 178.900 L 240.200 180.600 241.900 179.019 C 243.481 177.548,243.784 177.200,243.481 177.200 C 243.416 177.200,242.651 177.965,241.781 178.900 M236.497 185.434 C 235.561 186.845,234.879 188.000,234.983 188.000 C 235.253 188.000,238.498 183.165,238.336 183.003 C 238.261 182.929,237.434 184.023,236.497 185.434 M221.462 186.893 C 221.321 188.712,221.232 192.720,221.266 195.800 C 221.321 200.870,221.356 200.567,221.627 192.600 C 221.944 183.314,221.889 181.412,221.462 186.893 M233.404 189.596 C 232.774 190.254,232.335 190.856,232.429 190.934 C 232.523 191.012,233.113 190.474,233.739 189.738 C 235.154 188.077,234.945 187.988,233.404 189.596 M265.815 194.388 L 263.431 197.000 265.997 194.515 C 267.408 193.148,268.481 191.972,268.381 191.902 C 268.282 191.833,267.127 192.951,265.815 194.388 M224.223 200.264 C 223.150 201.482,222.416 201.993,221.923 201.864 C 221.525 201.760,221.300 201.838,221.423 202.037 C 221.875 202.768,222.673 202.356,224.600 200.400 C 225.683 199.300,226.397 198.417,226.185 198.438 C 225.973 198.458,225.091 199.280,224.223 200.264 M257.200 203.000 C 255.783 204.430,254.718 205.600,254.833 205.600 C 254.949 205.600,256.237 204.430,257.695 203.000 C 259.154 201.570,260.219 200.400,260.062 200.400 C 259.905 200.400,258.617 201.570,257.200 203.000 M161.397 202.876 C 162.275 203.604,164.345 205.457,165.997 206.994 C 167.754 208.629,168.336 209.051,167.400 208.012 C 165.363 205.751,165.377 205.763,162.348 203.476 C 160.947 202.418,160.519 202.148,161.397 202.876 M77.791 208.991 C 77.632 211.326,77.592 213.325,77.702 213.435 C 77.812 213.545,78.032 211.726,78.191 209.391 C 78.350 207.057,78.391 205.057,78.281 204.947 C 78.171 204.837,77.950 206.657,77.791 208.991 M253.129 207.500 C 252.178 208.618,250.728 210.800,250.935 210.800 C 251.040 210.800,251.772 209.900,252.562 208.800 C 253.985 206.819,254.277 206.150,253.129 207.500 M170.609 213.826 C 170.981 214.501,171.637 215.491,172.067 216.026 L 172.848 217.000 172.237 215.800 C 171.901 215.140,171.245 214.150,170.779 213.600 L 169.933 212.600 170.609 213.826 M53.746 220.200 C 53.747 222.400,53.814 223.249,53.895 222.087 C 53.976 220.924,53.976 219.124,53.893 218.087 C 53.811 217.049,53.745 218.000,53.746 220.200 M130.828 217.000 C 130.828 217.220,131.086 217.850,131.400 218.400 C 131.714 218.950,131.972 219.220,131.972 219.000 C 131.972 218.780,131.714 218.150,131.400 217.600 C 131.086 217.050,130.828 216.780,130.828 217.000 M255.800 220.556 C 256.680 221.344,257.565 221.991,257.767 221.994 C 257.968 221.997,258.058 221.945,257.967 221.877 C 257.875 221.810,256.990 221.163,256.000 220.439 L 254.200 219.124 255.800 220.556 M77.276 224.050 C 77.234 225.288,77.111 226.907,77.001 227.650 L 76.803 229.000 77.220 227.670 C 77.450 226.939,77.574 225.319,77.495 224.070 L 77.351 221.800 77.276 224.050 M175.228 224.276 C 175.318 225.315,175.944 226.196,175.972 225.324 C 175.987 224.842,175.820 224.336,175.600 224.200 C 175.380 224.064,175.213 224.098,175.228 224.276 M133.331 227.000 C 133.333 228.540,133.405 229.121,133.492 228.291 C 133.579 227.461,133.577 226.201,133.489 225.491 C 133.400 224.781,133.329 225.460,133.331 227.000 M54.109 226.400 C 54.109 227.390,54.187 227.795,54.282 227.300 C 54.378 226.805,54.378 225.995,54.282 225.500 C 54.187 225.005,54.109 225.410,54.109 226.400 M261.222 225.100 C 261.234 225.265,261.819 225.838,262.522 226.374 L 263.800 227.349 262.625 226.074 C 261.403 224.749,261.185 224.597,261.222 225.100 M133.746 234.200 C 133.747 236.400,133.814 237.249,133.895 236.087 C 133.976 234.924,133.976 233.124,133.893 232.087 C 133.811 231.049,133.745 232.000,133.746 234.200 M54.520 234.800 C 54.520 236.010,54.595 236.505,54.687 235.900 C 54.778 235.295,54.778 234.305,54.687 233.700 C 54.595 233.095,54.520 233.590,54.520 234.800 M177.901 236.200 C 178.014 238.180,178.172 239.875,178.253 239.967 C 178.550 240.304,178.333 234.174,178.020 233.400 C 177.840 232.955,177.787 234.198,177.901 236.200 M196.076 233.600 C 196.067 234.150,196.203 235.410,196.380 236.400 C 196.620 237.750,196.707 237.900,196.727 237.000 C 196.742 236.340,196.605 235.080,196.423 234.200 C 196.216 233.198,196.086 232.974,196.076 233.600 M273.200 233.701 C 273.200 233.955,276.296 236.000,276.680 236.000 C 276.844 236.000,276.623 235.758,276.189 235.461 C 274.281 234.159,273.200 233.522,273.200 233.701 M282.571 240.697 C 283.215 241.409,283.830 241.904,283.938 241.796 C 284.045 241.688,284.058 241.555,283.967 241.500 C 283.875 241.445,283.260 240.951,282.600 240.401 L 281.400 239.403 282.571 240.697 M53.869 241.156 C 53.721 241.895,53.620 242.882,53.644 243.350 C 53.668 243.818,53.847 243.390,54.042 242.400 C 54.237 241.410,54.338 240.423,54.267 240.206 C 54.196 239.990,54.017 240.417,53.869 241.156 M133.693 244.800 C 133.693 245.570,133.775 245.885,133.876 245.500 C 133.976 245.115,133.976 244.485,133.876 244.100 C 133.775 243.715,133.693 244.030,133.693 244.800 M52.981 246.985 C 52.834 247.967,52.870 249.434,53.062 250.244 C 53.352 251.470,53.411 251.171,53.411 248.459 C 53.411 244.716,53.352 244.515,52.981 246.985 M77.107 250.200 C 77.220 253.060,77.376 255.475,77.456 255.567 C 77.733 255.886,77.538 248.586,77.222 246.800 C 77.029 245.708,76.984 247.046,77.107 250.200 M288.422 245.470 C 288.434 245.651,288.974 246.219,289.622 246.730 C 290.270 247.242,290.790 247.512,290.778 247.330 C 290.766 247.149,290.226 246.581,289.578 246.070 C 288.930 245.558,288.410 245.288,288.422 245.470 M133.293 247.600 C 133.293 248.370,133.375 248.685,133.476 248.300 C 133.576 247.915,133.576 247.285,133.476 246.900 C 133.375 246.515,133.293 246.830,133.293 247.600 M196.567 255.200 C 196.567 259.490,196.626 261.245,196.698 259.100 C 196.770 256.955,196.770 253.445,196.698 251.300 C 196.626 249.155,196.567 250.910,196.567 255.200 M229.264 250.100 C 229.325 251.720,229.336 251.734,229.497 250.403 C 229.589 249.635,229.875 248.873,230.133 248.710 C 230.439 248.515,230.359 248.410,229.900 248.406 C 229.332 248.401,229.212 248.721,229.264 250.100 M232.400 249.734 C 232.400 249.837,232.981 250.124,233.691 250.372 C 234.401 250.619,234.806 250.657,234.591 250.456 C 234.135 250.029,232.400 249.458,232.400 249.734 M178.060 252.667 C 178.027 253.144,177.884 253.864,177.741 254.267 C 177.542 254.831,177.595 254.896,177.972 254.549 C 178.242 254.301,178.385 253.581,178.291 252.949 C 178.170 252.139,178.102 252.056,178.060 252.667 M53.762 259.000 C 53.762 262.520,53.824 263.906,53.898 262.081 C 53.972 260.256,53.972 257.376,53.897 255.681 C 53.822 253.986,53.761 255.480,53.762 259.000 M228.849 254.800 C 228.816 255.130,228.689 255.850,228.567 256.400 C 228.375 257.264,228.407 257.303,228.799 256.688 C 229.048 256.297,229.175 255.577,229.081 255.088 C 228.986 254.600,228.882 254.470,228.849 254.800 M307.371 259.497 C 308.015 260.209,308.630 260.704,308.738 260.596 C 308.845 260.488,308.858 260.355,308.767 260.300 C 308.675 260.245,308.060 259.751,307.400 259.201 L 306.200 258.203 307.371 259.497 M228.079 264.844 C 228.036 266.078,227.911 267.968,227.802 269.044 C 227.619 270.845,227.636 270.896,228.019 269.678 C 228.247 268.951,228.372 267.061,228.297 265.478 C 228.171 262.856,228.152 262.799,228.079 264.844 M312.033 263.700 C 312.125 263.755,312.740 264.250,313.400 264.800 L 314.600 265.800 313.630 264.700 C 313.097 264.095,312.482 263.600,312.264 263.600 C 312.045 263.600,311.942 263.645,312.033 263.700 M258.600 265.807 C 259.040 266.166,259.760 266.635,260.200 266.851 L 261.000 267.244 260.200 266.593 C 259.760 266.234,259.040 265.765,258.600 265.549 L 257.800 265.156 258.600 265.807 M54.093 266.800 C 54.093 267.570,54.175 267.885,54.276 267.500 C 54.376 267.115,54.376 266.485,54.276 266.100 C 54.175 265.715,54.093 266.030,54.093 266.800 M261.233 267.358 C 261.325 267.444,262.337 268.065,263.482 268.737 C 264.628 269.409,266.068 270.257,266.682 270.621 C 267.731 271.243,267.750 271.243,267.000 270.613 C 265.606 269.444,260.229 266.408,261.233 267.358 M317.927 268.600 C 318.581 269.150,319.238 269.600,319.388 269.600 C 319.539 269.600,319.127 269.150,318.473 268.600 C 317.819 268.050,317.162 267.600,317.012 267.600 C 316.861 267.600,317.273 268.050,317.927 268.600 M114.000 269.606 C 113.578 269.882,113.815 269.923,114.800 269.742 C 116.525 269.425,116.851 269.198,115.567 269.206 C 115.035 269.209,114.330 269.389,114.000 269.606 M111.200 270.418 C 110.762 270.715,110.924 270.752,111.800 270.556 C 113.271 270.227,113.590 269.998,112.567 270.006 C 112.145 270.009,111.530 270.195,111.200 270.418 M170.200 271.200 C 169.859 271.860,169.669 272.400,169.779 272.400 C 169.889 272.400,170.259 271.860,170.600 271.200 C 170.941 270.540,171.131 270.000,171.021 270.000 C 170.911 270.000,170.541 270.540,170.200 271.200 M78.433 270.944 C 78.525 271.024,79.410 271.196,80.400 271.327 C 81.602 271.486,81.934 271.447,81.400 271.210 C 80.636 270.872,78.086 270.643,78.433 270.944 M103.400 271.190 C 102.917 271.392,103.551 271.438,105.000 271.307 C 106.320 271.187,107.475 271.024,107.567 270.945 C 107.907 270.649,104.170 270.869,103.400 271.190 M54.114 273.000 C 54.117 274.100,54.195 274.503,54.287 273.895 C 54.379 273.286,54.377 272.386,54.282 271.895 C 54.187 271.403,54.111 271.900,54.114 273.000 M84.833 271.747 C 84.925 271.828,86.170 271.997,87.600 272.123 C 89.230 272.266,89.827 272.226,89.200 272.016 C 88.220 271.686,84.505 271.458,84.833 271.747 M97.000 271.996 C 96.502 272.208,97.031 272.251,98.400 272.112 C 99.610 271.989,100.675 271.823,100.767 271.744 C 101.111 271.447,97.767 271.670,97.000 271.996 M167.201 275.398 C 166.686 275.948,166.339 276.464,166.432 276.546 C 166.524 276.628,167.019 276.178,167.530 275.547 C 168.676 274.135,168.474 274.044,167.201 275.398 M53.701 277.000 C 53.705 277.880,53.787 278.193,53.883 277.695 C 53.979 277.198,53.975 276.478,53.875 276.095 C 53.775 275.713,53.696 276.120,53.701 277.000 M196.835 277.633 C 196.854 278.605,197.020 280.300,197.204 281.400 C 197.449 282.873,197.480 282.452,197.320 279.800 C 197.093 276.024,196.775 274.604,196.835 277.633 M227.276 277.644 C 227.234 278.658,227.113 280.368,227.006 281.444 L 226.812 283.400 227.222 281.800 C 227.447 280.920,227.568 279.210,227.491 278.000 C 227.355 275.856,227.349 275.847,227.276 277.644 M163.381 279.300 L 161.800 281.000 163.500 279.419 C 165.081 277.948,165.384 277.600,165.081 277.600 C 165.016 277.600,164.251 278.365,163.381 279.300 M54.142 282.600 C 54.141 284.580,54.208 285.440,54.292 284.512 C 54.376 283.584,54.377 281.964,54.295 280.912 C 54.212 279.860,54.143 280.620,54.142 282.600 M280.000 279.297 C 280.000 279.464,281.577 280.559,285.300 282.977 C 285.905 283.370,286.400 283.607,286.400 283.503 C 286.400 283.336,284.823 282.241,281.100 279.823 C 280.495 279.430,280.000 279.193,280.000 279.297 M336.400 282.924 C 336.400 283.017,337.165 283.598,338.100 284.215 C 339.035 284.832,339.589 285.080,339.331 284.768 C 338.834 284.167,336.400 282.636,336.400 282.924 M157.978 285.500 L 156.600 287.000 158.100 285.622 C 159.496 284.338,159.784 284.000,159.478 284.000 C 159.412 284.000,158.737 284.675,157.978 285.500 M53.682 291.220 C 53.587 297.034,53.682 297.228,56.580 297.135 L 58.600 297.070 56.400 296.835 L 54.200 296.600 53.982 291.400 L 53.763 286.200 53.682 291.220 M344.383 289.700 C 345.364 290.745,346.219 291.600,346.283 291.600 C 346.584 291.600,346.266 291.241,344.500 289.583 L 342.600 287.800 344.383 289.700 M197.748 294.800 C 197.748 297.110,197.814 298.055,197.895 296.900 C 197.976 295.745,197.976 293.855,197.895 292.700 C 197.814 291.545,197.748 292.490,197.748 294.800 M347.032 292.600 C 347.188 293.040,347.328 293.712,347.344 294.094 C 347.359 294.491,347.521 294.639,347.722 294.438 C 347.922 294.238,347.789 293.598,347.410 292.944 C 347.047 292.315,346.877 292.160,347.032 292.600 M137.200 296.000 C 136.376 296.264,136.341 296.326,137.000 296.354 C 137.440 296.373,138.070 296.213,138.400 296.000 C 139.101 295.547,138.614 295.547,137.200 296.000 M131.600 296.800 C 130.233 297.088,130.228 297.095,131.400 297.119 C 132.060 297.133,132.960 296.989,133.400 296.800 C 134.362 296.387,133.564 296.387,131.600 296.800 M308.800 297.164 C 309.350 297.614,309.980 297.983,310.200 297.985 C 310.628 297.988,309.905 297.434,308.600 296.760 C 308.069 296.485,308.136 296.621,308.800 297.164 M61.000 297.590 C 61.764 297.928,64.314 298.157,63.967 297.856 C 63.875 297.776,62.990 297.604,62.000 297.473 C 60.798 297.314,60.466 297.353,61.000 297.590 M126.800 297.600 C 125.416 297.891,125.414 297.895,126.600 297.941 C 127.260 297.967,128.070 297.813,128.400 297.600 C 129.066 297.170,128.845 297.170,126.800 297.600 M67.800 298.403 C 69.014 298.709,73.874 298.922,73.567 298.656 C 73.475 298.576,71.870 298.419,70.000 298.306 C 68.128 298.192,67.139 298.236,67.800 298.403 M121.400 298.400 L 119.800 298.686 121.200 298.715 C 121.970 298.731,122.960 298.589,123.400 298.400 C 124.343 297.995,123.662 297.995,121.400 298.400 M226.380 299.890 C 226.271 300.819,226.333 301.427,226.520 301.240 C 226.706 301.054,226.796 300.294,226.719 299.551 C 226.583 298.233,226.575 298.242,226.380 299.890 M116.400 299.200 L 114.600 299.480 116.200 299.512 C 117.080 299.529,118.160 299.389,118.600 299.200 C 119.527 298.802,118.961 298.802,116.400 299.200 M79.633 300.144 C 79.725 300.223,80.340 300.408,81.000 300.556 C 81.876 300.752,82.038 300.715,81.600 300.418 C 81.060 300.053,79.232 299.798,79.633 300.144 M107.900 300.289 C 108.615 300.378,109.785 300.378,110.500 300.289 C 111.215 300.201,110.630 300.128,109.200 300.128 C 107.770 300.128,107.185 300.201,107.900 300.289 M100.112 300.695 C 101.164 300.777,102.784 300.776,103.712 300.692 C 104.640 300.608,103.780 300.541,101.800 300.542 C 99.820 300.543,99.060 300.612,100.112 300.695 M85.700 301.098 C 87.625 301.171,90.775 301.171,92.700 301.098 C 94.625 301.025,93.050 300.965,89.200 300.965 C 85.350 300.965,83.775 301.025,85.700 301.098 M319.000 302.266 C 319.660 302.615,320.557 303.193,320.993 303.550 C 321.742 304.164,321.755 304.160,321.222 303.474 C 320.657 302.746,318.720 301.586,318.120 301.616 C 317.944 301.625,318.340 301.917,319.000 302.266 M203.396 306.031 C 205.374 306.205,207.591 306.223,208.322 306.071 C 209.114 305.907,207.659 305.779,204.726 305.755 L 199.800 305.714 203.396 306.031 M330.400 310.751 C 330.400 311.133,332.328 312.205,332.574 311.960 C 332.670 311.864,332.220 311.482,331.574 311.111 C 330.928 310.740,330.400 310.578,330.400 310.751 " stroke="none" fill="#53b4f4" fill-rule="evenodd"></path></g></svg>