
<svg width="299px" height="73px" viewBox="0 0 299 73" version="1.1" xmlns="http://www.w3.org/2000/svg" xmlns:xlink="http://www.w3.org/1999/xlink">
  <defs>
    <linearGradient x1="50%" y1="0%" x2="50%" y2="100%" id="linearGradient-1">
        <stop stop-color="#00E0E5" offset="0%"></stop>
        <stop stop-color="#9543FF" offset="50.8331512%"></stop>
        <stop stop-color="#E244C4" offset="99.9590253%"></stop>
    </linearGradient>
    <path d="M31.9567416,0.000337078652 C31.1073034,0.000337078652 30.2764045,0.345842697 29.6780899,0.944157303 C29.1539326,1.46662921 28.8252809,2.16438202 28.7494382,2.89752809 L2.78258427,17.8907865 C2.21629213,18.2177528 1.86741573,18.822809 1.86741573,19.4767416 L1.86741573,34.5930337 C1.52359551,34.7514607 1.21011236,34.9688764 0.945505618,35.2351685 C0.343820225,35.8351685 0,36.6660674 0,37.517191 C0,38.3666292 0.343820225,39.1992135 0.945505618,39.7975281 C1.21011236,40.0638202 1.52359551,40.2829213 1.86741573,40.4396629 L1.86741573,52.1076404 C1.86741573,52.7632584 2.21629213,53.3666292 2.78258427,53.6935955 L28.7460674,68.6851685 C28.7376404,68.781236 28.7342697,68.875618 28.7342697,68.97 C28.7325843,69.8211236 29.0764045,70.6520225 29.6780899,71.2503371 C30.2544944,71.828427 31.0449438,72.1705618 31.8623596,72.1958427 L32.0561798,72.1958427 C32.8719101,72.1705618 33.6640449,71.828427 34.2404494,71.2520225 C34.8404494,70.6537079 35.1842697,69.8211236 35.1842697,68.9716854 C35.1842697,68.875618 35.1808989,68.7795506 35.1707865,68.6851685 L61.1359551,53.6935955 C61.7022472,53.3666292 62.0511236,52.7632584 62.0511236,52.1076404 L62.0511236,38.1930337 C62.3949438,38.0346067 62.7067416,37.817191 62.9713483,37.5508989 C63.5730337,36.9525843 63.9168539,36.1183146 63.9168539,35.2688764 C63.9168539,34.4177528 63.5730337,33.5868539 62.9713483,32.9885393 C62.7067416,32.7205618 62.3932584,32.5031461 62.0511236,32.3447191 L62.0511236,19.4767416 C62.0511236,18.822809 61.7022472,18.2177528 61.1359551,17.8907865 L35.1691011,2.89752809 C35.0932584,2.16438202 34.7629213,1.46662921 34.2404494,0.945842697 C33.6404494,0.345842697 32.8095506,0.000337078652 31.9601124,0.000337078652 L31.9567416,0.000337078652 Z M31.0011236,4.18516854 C30.9674157,4.15314607 30.9370787,4.11775281 30.908427,4.08235955 C30.7095506,3.83797753 30.6033708,3.54134831 30.6033708,3.22617978 C30.6033708,2.86382022 30.7449438,2.52337079 30.9977528,2.26719101 C31.2573034,2.01101124 31.5977528,1.8694382 31.958427,1.8694382 C32.3191011,1.8694382 32.661236,2.01101124 32.9174157,2.26550562 C33.1735955,2.52337079 33.3151685,2.86382022 33.3151685,3.22617978 C33.3151685,3.54134831 33.2089888,3.83797753 33.0101124,4.08235955 C32.9814607,4.11775281 32.9511236,4.15314607 32.9174157,4.18516854 C32.661236,4.43966292 32.3191011,4.58123596 31.9601124,4.58123596 C31.5977528,4.58123596 31.2573034,4.43966292 31.0011236,4.18516854 Z M34.1814607,5.56044944 L34.2438202,5.50314607 L59.0275281,19.8121348 C59.2162921,19.9216854 59.3325843,20.1222472 59.3325843,20.3396629 L59.3325843,32.3447191 C59.0376404,32.481236 58.7646067,32.6598876 58.5252809,32.8773034 L35.1623596,18.6138202 C35.1775281,18.4924719 35.1842697,18.3711236 35.1842697,18.2497753 C35.1842697,17.4003371 34.8404494,16.5677528 34.2404494,15.9711236 C33.6404494,15.3677528 32.8095506,15.025618 31.9601124,15.025618 L31.958427,15.025618 C31.1073034,15.025618 30.2764045,15.3677528 29.6780899,15.9694382 C29.0764045,16.5677528 28.7325843,17.4003371 28.7342697,18.2497753 C28.7342697,18.3441573 28.7376404,18.4402247 28.7460674,18.5362921 L15.8797753,25.9655056 C15.0674157,26.4340449 15.0674157,27.608764 15.8797753,28.0789888 L43.9735955,44.2992135 C44.1775281,44.4155056 44.1775281,44.7104494 43.9735955,44.8267416 L34.1106742,50.5216854 C33.5241573,49.9975281 32.7505618,49.7008989 31.9601124,49.7008989 C31.958427,49.6992135 31.958427,49.6992135 31.958427,49.7008989 C31.1662921,49.7008989 30.3926966,49.9975281 29.8078652,50.5216854 L6.40955056,37.0132584 C6.30337079,36.3407865 5.99157303,35.7188764 5.50786517,35.2368539 C5.23988764,34.9688764 4.92808989,34.7514607 4.58595506,34.5930337 L4.58595506,20.3396629 C4.58595506,20.1222472 4.7005618,19.9216854 4.89101124,19.8121348 L29.6747191,5.50314607 C30.2730337,6.10651685 31.105618,6.45033708 31.9567416,6.45033708 C32.7859551,6.45033708 33.5831461,6.13348315 34.1814607,5.56044944 Z M31.4544944,19.508764 C31.2842697,19.4413483 31.1325843,19.3402247 31.0011236,19.2104494 C30.7449438,18.9525843 30.6033708,18.6138202 30.6033708,18.2497753 C30.6033708,18.1891011 30.6067416,18.128427 30.6185393,18.0576404 C30.6606742,17.7660674 30.7904494,17.5031461 30.9994382,17.2924719 C31.2573034,17.0362921 31.5977528,16.8947191 31.958427,16.8947191 C32.3191011,16.8947191 32.661236,17.0362921 32.9174157,17.2924719 C33.1365169,17.5098876 33.2696629,17.7862921 33.3050562,18.0913483 C33.3117978,18.1419101 33.3151685,18.1941573 33.3151685,18.2497753 C33.3151685,18.6138202 33.1735955,18.9525843 32.9191011,19.208764 C32.7775281,19.3486517 32.6157303,19.4531461 32.4303371,19.5222472 C32.2786517,19.5778652 32.1202247,19.6065169 31.9601124,19.6065169 C31.7848315,19.6065169 31.6162921,19.5744944 31.4544944,19.508764 Z M31.9601124,56.1525843 C32.8095506,56.1525843 33.6404494,55.8053933 34.2404494,55.2070787 C34.8134831,54.6357303 35.1522472,53.8503371 35.1825843,53.0413483 L48.0370787,45.6205618 C48.8494382,45.1503371 48.8494382,43.975618 48.0370787,43.5053933 L19.9432584,27.2851685 C19.7410112,27.167191 19.7410112,26.875618 19.9432584,26.7576404 L30.1044944,20.8907865 C30.6455056,21.27 31.2859551,21.4773034 31.9567416,21.4773034 L31.9601124,21.4773034 C32.6005618,21.4773034 33.2191011,21.2868539 33.7449438,20.9346067 L57.4685393,35.4188764 C57.5073034,36.2160674 57.8460674,36.9862921 58.4089888,37.5492135 C58.6769663,37.817191 58.988764,38.0346067 59.3325843,38.1930337 L59.3325843,51.2447191 C59.3325843,51.4621348 59.2162921,51.664382 59.0275281,51.7722472 L33.8123596,66.3306742 C33.2730337,65.9514607 32.6292135,65.7441573 31.9601124,65.7441573 L31.958427,65.7441573 C31.2876404,65.7441573 30.6455056,65.9514607 30.1044944,66.3306742 L4.89101124,51.7722472 C4.7005618,51.664382 4.58595506,51.4621348 4.58595506,51.2447191 L4.58595506,40.4396629 C4.92808989,40.2829213 5.23988764,40.0655056 5.50617978,39.7992135 C5.54157303,39.7638202 5.5752809,39.728427 5.60898876,39.6896629 L28.7359551,53.0413483 C28.7646067,53.8503371 29.1033708,54.6357303 29.6780899,55.2053933 C30.2764045,55.8053933 31.1073034,56.1525843 31.9567416,56.1525843 L31.9601124,56.1525843 Z M60.2797753,36.561573 C60.1247191,36.5110112 59.9814607,36.4351685 59.8516854,36.3323596 C59.811236,36.3003371 59.7724719,36.2666292 59.7337079,36.2295506 C59.4775281,35.97 59.3359551,35.631236 59.3342697,35.2688764 C59.3359551,34.9183146 59.4691011,34.5862921 59.7117978,34.3301124 L59.7320225,34.3098876 C59.7724719,34.2711236 59.811236,34.2374157 59.8533708,34.2053933 C60.0926966,34.0132584 60.3825843,33.9138202 60.6910112,33.9138202 C60.9994382,33.9138202 61.2893258,34.0132584 61.5303371,34.2053933 C61.5724719,34.2374157 61.611236,34.2711236 61.65,34.3082022 C61.9061798,34.5677528 62.0460674,34.9065169 62.0460674,35.267191 C62.0460674,35.631236 61.9061798,35.97 61.6516854,36.2261798 L61.65,36.2295506 C61.611236,36.2666292 61.5724719,36.2986517 61.5303371,36.3323596 C61.2893258,36.5244944 60.9994382,36.6239326 60.6926966,36.625618 C60.5511236,36.625618 60.411236,36.6037079 60.2797753,36.561573 Z M2.38651685,38.5806742 C2.34438202,38.5486517 2.30561798,38.5149438 2.26853933,38.4778652 C2.01067416,38.2183146 1.87078652,37.8795506 1.87078652,37.517191 L1.87078652,37.5155056 C1.87078652,37.1548315 2.01067416,36.8160674 2.26685393,36.5598876 C2.30730337,36.5211236 2.34606742,36.4840449 2.38820225,36.4520225 C2.62752809,36.261573 2.91910112,36.1621348 3.2241573,36.1621348 C3.30674157,36.1621348 3.38764045,36.167191 3.46853933,36.1840449 C3.68595506,36.222809 3.89157303,36.3155056 4.06516854,36.4520225 C4.10730337,36.4857303 4.14775281,36.5211236 4.18314607,36.5582022 C4.44101124,36.8160674 4.58089888,37.1548315 4.58258427,37.5155056 C4.58258427,37.7733708 4.51011236,38.0244944 4.37191011,38.2402247 C4.31797753,38.3261798 4.25561798,38.4053933 4.18651685,38.4761798 C4.14775281,38.5149438 4.10730337,38.5469663 4.06685393,38.5806742 C3.8241573,38.772809 3.53426966,38.8722472 3.2258427,38.8739326 C2.91910112,38.8722472 2.62752809,38.772809 2.38651685,38.5806742 Z M31.7814607,54.27 C31.4831461,54.2295506 31.2134831,54.0964045 31.0011236,53.8857303 C30.9623596,53.8469663 30.9252809,53.8048315 30.8865169,53.7542697 C30.7011236,53.5166292 30.6033708,53.2267416 30.6033708,52.9267416 C30.6033708,52.564382 30.7449438,52.2239326 30.9977528,51.9677528 C31.0162921,51.9508989 31.0348315,51.9340449 31.0516854,51.9188764 C31.3061798,51.6930337 31.6264045,51.57 31.958427,51.57 C32.2921348,51.57 32.6123596,51.6930337 32.8617978,51.9155056 C32.8837079,51.9340449 32.9022472,51.9508989 32.9174157,51.9677528 C33.1735955,52.2239326 33.3151685,52.564382 33.3151685,52.9250562 C33.3151685,53.228427 33.2157303,53.5166292 33.0303371,53.7542697 L33.0303371,53.7559551 C32.9966292,53.7997753 32.9595506,53.8419101 32.9207865,53.8823596 C32.7033708,54.0964045 32.4353933,54.2295506 32.138764,54.27 C32.0730337,54.2767416 32.0157303,54.2817978 31.9601124,54.2834831 C31.9011236,54.2817978 31.8455056,54.2767416 31.7814607,54.27 Z M31.0011236,69.9289888 C30.7904494,69.7183146 30.6606742,69.4553933 30.6185393,69.1638202 C30.6067416,69.0913483 30.6033708,69.0306742 30.6033708,68.9716854 C30.6033708,68.6093258 30.7449438,68.267191 30.9977528,68.0126966 C31.1325843,67.8795506 31.2842697,67.778427 31.4544944,67.7126966 C31.6162921,67.6469663 31.7848315,67.6149438 31.958427,67.6149438 C32.1337079,67.6149438 32.3022472,67.6469663 32.4640449,67.7126966 C32.6342697,67.778427 32.7876404,67.8795506 32.9174157,68.0093258 C33.1735955,68.267191 33.3151685,68.6093258 33.3151685,68.97 C33.3151685,69.0340449 33.3101124,69.0947191 33.3016854,69.1638202 C33.2595506,69.4553933 33.1280899,69.7166292 32.9191011,69.9273034 L32.9174157,69.9289888 C32.661236,70.1851685 32.3191011,70.3250562 31.958427,70.3267416 C31.5977528,70.3250562 31.2573034,70.1851685 31.0011236,69.9289888 Z" id="path-2"></path>
  </defs>
  <g id="syscops-desktop" stroke="none" stroke-width="1" fill="none" fill-rule="evenodd">
    <g id="landing-page" transform="translate(-246.000000, -240.000000)">
      <g id="01-01">
          <g id="content" transform="translate(158.000000, 150.000000)">
              <g id="text">
                  <g id="Group-42" transform="translate(88.000000, 90.000000)">
                      <g id="Group-41" transform="translate(87.640449, 14.892472)" fill="#FFFFFF">
                          <path d="M20.8336517,17.7220787 C19.0892697,20.1574719 15.7960112,20.5451124 15.0746629,20.629382 C14.6330899,20.6833146 13.4971348,20.8215169 12.2516292,20.8215169 C11.6988202,20.8215169 9.29039326,20.7675843 7.21398876,20.2400562 C6.77073034,20.1305056 6.0797191,19.9636517 5.11061798,19.5490449 C4.08589888,19.1057865 3.39320225,18.6069101 3.06286517,18.3574719 C2.01117978,17.5552247 1.53926966,16.8372472 1.23421348,16.3939888 L3.80949438,15.340618 C3.94769663,15.5074719 4.05893258,15.6456742 4.22410112,15.8108427 C4.64039326,16.2271348 5.5538764,16.9467978 6.90893258,17.4996067 C9.15219101,18.4130899 11.8100562,18.4417416 12.4454494,18.4417416 C12.9443258,18.4417416 15.8785955,18.5243258 17.7611798,17.1119663 C18.9241011,16.2271348 19.0892697,15.0085955 19.0892697,14.4827528 C19.0892697,13.3467978 18.452191,12.5175843 17.4274719,12.0743258 C15.9881461,11.4372472 12.6123034,11.243427 11.0617416,11.1052247 C7.32522472,10.8018539 5.49825843,10.6063483 4.05893258,9.27825843 C2.7291573,8.06140449 2.67353933,6.67601124 2.67353933,6.01196629 C2.67353933,3.27151685 4.5561236,2.02601124 5.38702247,1.5844382 C6.54994382,0.947359551 8.68196629,0.310280899 11.8370225,0.310280899 C15.7117416,0.310280899 18.0375843,1.25073034 19.4499438,2.16589888 C19.7802809,2.385 20.0583708,2.58050562 20.3364607,2.82825843 C20.9718539,3.35578652 21.4420787,4.04679775 21.6089326,4.24061798 L19.0623034,5.26533708 C18.9241011,5.12544944 18.4252247,4.62825843 17.8724157,4.24061798 C16.7920787,3.49398876 14.9364607,2.60747191 11.8639888,2.60747191 C9.87185393,2.60747191 8.32129213,2.96646067 7.60162921,3.24455056 C5.91286517,3.87994382 5.44264045,5.04455056 5.44264045,5.87544944 C5.44264045,6.29005618 5.5538764,6.73162921 5.77466292,7.09061798 C6.46735955,8.19960674 7.85106742,8.3091573 8.98533708,8.44735955 C11.1443258,8.72544944 13.3033146,8.83668539 15.4623034,9.0844382 C18.4808427,9.44511236 19.8645506,10.2203933 20.805,11.3816292 C21.7757865,12.6288202 21.8297191,13.8743258 21.8297191,14.4557865 C21.8297191,16.1158989 21.2212921,17.196236 20.8336517,17.7220787" id="Fill-4"></path>
                          <polygon id="Fill-6" points="43.1708427 12.7943258 43.1708427 20.3499438 40.4303933 20.3499438 40.4303933 12.7387079 30.6871348 0.807808989 34.2567978 0.807808989 41.8141011 10.3858989 49.5382584 0.807808989 53.0809551 0.807808989"></polygon>
                          <path d="M80.4923596,17.7220787 C78.7479775,20.1574719 75.4547191,20.5451124 74.7333708,20.629382 C74.2917978,20.6833146 73.1558427,20.8215169 71.9103371,20.8215169 C71.3575281,20.8215169 68.9491011,20.7675843 66.8726966,20.2400562 C66.4294382,20.1305056 65.738427,19.9636517 64.7676404,19.5490449 C63.7446067,19.1057865 63.0519101,18.6069101 62.7198876,18.3574719 C61.6682022,17.5552247 61.1979775,16.8372472 60.8929213,16.3939888 L63.4665169,15.340618 C63.6064045,15.5074719 63.7159551,15.6456742 63.882809,15.8108427 C64.2991011,16.2271348 65.2125843,16.9467978 66.5676404,17.4996067 C68.8092135,18.4130899 71.4670787,18.4417416 72.1041573,18.4417416 C72.6030337,18.4417416 75.5373034,18.5243258 77.4198876,17.1119663 C78.5811236,16.2271348 78.7479775,15.0085955 78.7479775,14.4827528 C78.7479775,13.3467978 78.1108989,12.5175843 77.0861798,12.0743258 C75.6468539,11.4372472 72.2710112,11.243427 70.7204494,11.1052247 C66.9839326,10.8018539 65.1552809,10.6063483 63.7159551,9.27825843 C62.3878652,8.06140449 62.3322472,6.67601124 62.3322472,6.01196629 C62.3322472,3.27151685 64.2148315,2.02601124 65.0457303,1.5844382 C66.2069663,0.947359551 68.3406742,0.310280899 71.4957303,0.310280899 C75.3704494,0.310280899 77.6962921,1.25073034 79.1086517,2.16589888 C79.4389888,2.385 79.7170787,2.58050562 79.9934831,2.82825843 C80.6305618,3.35578652 81.1007865,4.04679775 81.2659551,4.24061798 L78.7210112,5.26533708 C78.5811236,5.12544944 78.0839326,4.62825843 77.5294382,4.24061798 C76.4507865,3.49398876 74.5951685,2.60747191 71.5226966,2.60747191 C69.5305618,2.60747191 67.98,2.96646067 67.2603371,3.24455056 C65.571573,3.87994382 65.1013483,5.04455056 65.1013483,5.87544944 C65.1013483,6.29005618 65.2125843,6.73162921 65.4333708,7.09061798 C66.1260674,8.19960674 67.5097753,8.3091573 68.6440449,8.44735955 C70.8030337,8.72544944 72.9620225,8.83668539 75.1210112,9.0844382 C78.1395506,9.44511236 79.5232584,10.2203933 80.4637079,11.3816292 C81.432809,12.6288202 81.488427,13.8743258 81.488427,14.4557865 C81.488427,16.1158989 80.88,17.196236 80.4923596,17.7220787" id="Fill-8"></path>
                          <path d="M113.949101,17.1114607 C110.765393,20.8496629 105.11764,20.8496629 103.983371,20.8496629 C100.108652,20.8496629 97.838427,19.7693258 96.4547191,18.8844944 C95.9558427,18.5507865 95.5682022,18.2474157 95.1249438,17.8597753 C94.8485393,17.5833708 94.2401124,16.9749438 93.685618,16.088427 C92.9929213,15.0367416 92.1350562,13.3479775 92.1350562,10.4423596 C92.1350562,9.49853933 92.1906742,6.92662921 93.8524719,4.6294382 C94.1288764,4.21314607 94.4895506,3.76988764 95.2648315,3.0788764 C95.9558427,2.49573034 96.7580899,1.94292135 97.5333708,1.55696629 C100.053034,0.282808989 103.181124,0.225505618 103.927753,0.225505618 C104.841236,0.225505618 108.468202,0.309775281 111.291236,2.02719101 C111.678876,2.27494382 112.481124,2.80247191 113.312022,3.66033708 C114.198539,4.60078652 114.668764,5.45865169 114.918202,5.90191011 L111.955281,6.53898876 C111.790112,6.23393258 111.623258,5.95752809 111.429438,5.6811236 C110.987865,5.07101124 110.322135,4.46258427 109.686742,4.07494382 C108.773258,3.49348315 106.80809,2.66258427 104.038989,2.66258427 C103.263708,2.66258427 100.246854,2.68955056 97.9766292,4.29573034 C97.7558427,4.43561798 97.341236,4.76595506 96.8693258,5.29179775 C96.1210112,6.09573034 95.0693258,7.64629213 95.0693258,10.4137079 C95.0693258,11.2159551 95.1535955,13.4305618 96.6198876,15.3401124 C98.3642697,17.6120225 101.242921,18.1361798 102.07382,18.274382 C103.01427,18.4125843 104.012022,18.4125843 104.315393,18.4125843 C105.20191,18.4125843 108.994045,18.441236 111.318202,15.8946067 C111.790112,15.3957303 112.066517,14.9811236 112.398539,14.3996629 L115.332809,15.0080899 C114.69573,16.1440449 114.336742,16.6429213 113.949101,17.1114607" id="Fill-10"></path>
                          <path d="M145.776573,7.17522472 C143.671517,2.66174157 138.108034,2.69039326 137.00073,2.71735955 C136.169831,2.74601124 132.654101,2.93814607 130.385562,5.21005618 C129.997921,5.59601124 129.22264,6.4555618 128.752416,7.83926966 C128.44736,8.72578652 128.309157,9.74882022 128.309157,10.6909551 C128.309157,11.410618 128.391742,13.5139888 129.721517,15.3139888 C129.997921,15.6729775 130.412528,16.1718539 131.272079,16.7802809 C132.406348,17.5842135 134.315899,18.4690449 137.555225,18.4690449 C138.081067,18.4690449 139.382191,18.4690449 140.848483,18.0814045 C143.588933,17.3617416 145.582753,15.5347753 146.246798,12.7656742 C146.329382,12.3797191 146.496236,11.5757865 146.496236,10.5814045 C146.496236,8.91792135 146.052978,7.75668539 145.776573,7.17522472 M146.745674,17.4999438 C145.388933,18.9123034 142.399045,20.8774719 137.499607,20.8774719 C137.00073,20.8774719 135.866461,20.8488202 134.509719,20.6280337 C133.181629,20.4342135 129.22264,19.7145506 126.952416,16.0589326 C125.62264,13.9016292 125.540056,11.6870225 125.540056,10.8005056 C125.540056,8.55893258 126.121517,6.31735955 127.50691,4.57297753 C127.783315,4.21230337 128.143989,3.79769663 128.917584,3.16061798 C130.24736,2.05331461 132.932191,0.33758427 137.332753,0.33758427 C138.21927,0.33758427 140.877135,0.420168539 143.395112,1.58477528 C145.001292,2.33140449 146.550169,3.54825843 147.574888,5.01623596 C149.181067,7.34207865 149.290618,9.91567416 149.290618,10.857809 C149.290618,11.9903933 149.125449,15.0358989 146.745674,17.4999438" id="Fill-12"></path>
                          <path d="M177.277416,4.51719101 C176.170112,3.13348315 174.287528,3.13348315 172.71,3.13348315 L163.989775,3.13348315 L163.989775,10.1919101 L173.013371,10.1919101 C174.536966,10.1919101 176.197079,10.1362921 177.248764,8.83685393 C177.55382,8.47617978 177.968427,7.78348315 177.968427,6.6205618 C177.968427,6.26157303 177.941461,5.34808989 177.277416,4.51719101 M178.937528,11.1896629 C177.248764,12.4891011 175.421798,12.5177528 173.402697,12.5177528 L164.018427,12.5177528 L164.018427,20.3514607 L161.193708,20.3514607 L161.193708,0.807640449 L173.153258,0.807640449 C173.650449,0.807640449 174.149326,0.834606742 174.646517,0.863258427 C175.506067,0.94752809 178.329101,1.05707865 179.989213,3.43685393 C180.653258,4.40764045 180.986966,5.59752809 180.986966,6.78741573 C180.986966,7.56269663 180.848764,9.74865169 178.937528,11.1896629" id="Fill-14"></path>
                          <path d="M209.793539,17.7220787 C208.049157,20.1574719 204.755899,20.5451124 204.034551,20.629382 C203.592978,20.6833146 202.457022,20.8215169 201.211517,20.8215169 C200.658708,20.8215169 198.250281,20.7675843 196.173876,20.2400562 C195.730618,20.1305056 195.039607,19.9636517 194.070506,19.5490449 C193.045787,19.1057865 192.35309,18.6069101 192.021067,18.3574719 C190.969382,17.5552247 190.499157,16.8372472 190.194101,16.3939888 L192.767697,15.340618 C192.907584,15.5074719 193.01882,15.6456742 193.183989,15.8108427 C193.600281,16.2271348 194.513764,16.9467978 195.86882,17.4996067 C198.110393,18.4130899 200.769944,18.4417416 201.405337,18.4417416 C201.904213,18.4417416 204.838483,18.5243258 206.721067,17.1119663 C207.882303,16.2271348 208.049157,15.0085955 208.049157,14.4827528 C208.049157,13.3467978 207.412079,12.5175843 206.38736,12.0743258 C204.948034,11.4372472 201.572191,11.243427 200.021629,11.1052247 C196.285112,10.8018539 194.458146,10.6063483 193.01882,9.27825843 C191.689045,8.06140449 191.633427,6.67601124 191.633427,6.01196629 C191.633427,3.27151685 193.516011,2.02601124 194.34691,1.5844382 C195.509831,0.947359551 197.641854,0.310280899 200.79691,0.310280899 C204.671629,0.310280899 206.997472,1.25073034 208.409831,2.16589888 C208.740169,2.385 209.018258,2.58050562 209.294663,2.82825843 C209.931742,3.35578652 210.401966,4.04679775 210.567135,4.24061798 L208.022191,5.26533708 C207.882303,5.12544944 207.385112,4.62825843 206.830618,4.24061798 C205.751966,3.49398876 203.896348,2.60747191 200.823876,2.60747191 C198.831742,2.60747191 197.28118,2.96646067 196.561517,3.24455056 C194.872753,3.87994382 194.402528,5.04455056 194.402528,5.87544944 C194.402528,6.29005618 194.513764,6.73162921 194.734551,7.09061798 C195.427247,8.19960674 196.810955,8.3091573 197.945225,8.44735955 C200.104213,8.72544944 202.263202,8.83668539 204.422191,9.0844382 C207.44073,9.44511236 208.824438,10.2203933 209.764888,11.3816292 C210.733989,12.6288202 210.789607,13.8743258 210.789607,14.4557865 C210.789607,16.1158989 210.18118,17.196236 209.793539,17.7220787" id="Fill-16"></path>
                          <polygon id="Fill-19" points="5.17870787 37.5485393 5.17870787 43.8704494 4.16241573 43.8704494 4.16241573 37.5485393 1.23488764 37.5485393 1.23488764 36.6940449 8.11634831 36.6940449 8.11634831 37.5485393"></polygon>
                          <polygon id="Fill-21" points="12.1803371 43.8704494 12.1803371 36.6940449 18.7988764 36.6940449 18.7988764 37.5788764 13.1966292 37.5788764 13.1966292 39.7125843 18.655618 39.7125843 18.655618 40.5670787 13.1966292 40.5670787 13.1966292 42.9873034 19.0617978 42.9873034 19.0617978 43.8704494"></polygon>
                          <path d="M30.8217978,42.6820787 C29.6521348,44.0539888 27.5791011,44.0539888 27.162809,44.0539888 C25.7386517,44.0539888 24.9060674,43.6579213 24.3970787,43.3326404 C24.2150562,43.2096067 24.0717978,43.0983708 23.9083146,42.9567978 C23.807191,42.8556742 23.5847191,42.6315169 23.3807865,42.3045506 C23.1262921,41.9185955 22.8111236,41.3000562 22.8111236,40.2315169 C22.8111236,39.8860112 22.8313483,38.9388202 23.4414607,38.0961236 C23.5425843,37.9444382 23.6757303,37.7809551 23.9605618,37.5264607 C24.2150562,37.3141011 24.5083146,37.1101685 24.7931461,36.9669101 C25.718427,36.5017416 26.8678652,36.4798315 27.1408989,36.4798315 C27.4779775,36.4798315 28.8094382,36.5118539 29.8459551,37.142191 C29.9875281,37.2332022 30.2824719,37.4253371 30.5875281,37.7405056 C30.912809,38.0860112 31.0864045,38.4028652 31.1774157,38.5646629 L30.0886517,38.7972472 C30.0279775,38.6860112 29.9673034,38.5832022 29.8965169,38.483764 C29.7330337,38.2596067 29.4903371,38.0354494 29.2560674,37.8938764 C28.9206742,37.6798315 28.1993258,37.3747753 27.1830337,37.3747753 C26.8982022,37.3747753 25.7892135,37.3848876 24.9566292,37.9747753 C24.8740449,38.0253371 24.7223596,38.1483708 24.548764,38.342191 C24.2740449,38.6354494 23.8880899,39.2051124 23.8880899,40.2214045 C23.8880899,40.5163483 23.918427,41.3287079 24.4577528,42.0298315 C25.0982022,42.8641011 26.1549438,43.0579213 26.4616854,43.1084831 C26.807191,43.1590449 27.171236,43.1590449 27.2841573,43.1590449 C27.6094382,43.1590449 29.001573,43.1691573 29.8560674,42.233764 C30.0279775,42.0517416 30.1307865,41.8983708 30.2521348,41.6843258 L31.3291011,41.9084831 C31.0965169,42.3247753 30.9633708,42.5084831 30.8217978,42.6820787" id="Fill-23"></path>
                          <polygon id="Fill-25" points="42.0854494 43.8704494 42.0854494 40.474382 36.5860112 40.474382 36.5860112 43.8704494 35.5494944 43.8704494 35.5494944 36.6940449 36.5758989 36.6940449 36.5758989 39.621573 42.0753371 39.621573 42.0753371 36.6940449 43.1118539 36.6940449 43.1118539 43.8704494"></polygon>
                          <polygon id="Fill-27" points="54.5464045 43.8704494 48.925618 37.9344944 48.9458427 43.8704494 47.97 43.8704494 47.97 36.6940449 49.0166292 36.6940449 54.5969663 42.621573 54.5666292 36.6940449 55.5424719 36.6940449 55.5424719 43.8704494"></polygon>
                          <path d="M67.4403371,39.0315169 C66.668427,37.3747753 64.6257303,37.3848876 64.2178652,37.395 C63.912809,37.4051124 62.6217978,37.4758989 61.7892135,38.3101685 C61.6459551,38.4517416 61.362809,38.7685955 61.1892135,39.2758989 C61.0779775,39.6011798 61.0257303,39.9787079 61.0257303,40.3242135 C61.0257303,40.5871348 61.0560674,41.3607303 61.5448315,42.0197191 C61.6459551,42.1545506 61.7993258,42.3348876 62.1144944,42.5607303 C62.5307865,42.8556742 63.2319101,43.1792697 64.4217978,43.1792697 C64.615618,43.1792697 65.0925843,43.1792697 65.6319101,43.0376966 C66.6380899,42.7730899 67.3695506,42.1023034 67.6139326,41.0860112 C67.6442697,40.9444382 67.7049438,40.6494944 67.7049438,40.2820787 C67.7049438,39.6719663 67.5431461,39.2455618 67.4403371,39.0315169 M67.7959551,42.8236517 C67.298764,43.3427528 66.201573,44.0641011 64.401573,44.0641011 C64.2178652,44.0641011 63.801573,44.0539888 63.3026966,43.9730899 C62.815618,43.9023034 61.362809,43.6360112 60.5285393,42.2961236 C60.0397753,41.5023034 60.0094382,40.6882584 60.0094382,40.3629775 C60.0094382,39.5405056 60.2234831,38.7163483 60.7324719,38.0775843 C60.8335955,37.9444382 60.9650562,37.7927528 61.2498876,37.5584831 C61.7386517,37.1523034 62.7246067,36.5219663 64.3408989,36.5219663 C64.6661798,36.5219663 65.6420225,36.550618 66.565618,36.9787079 C67.157191,37.253427 67.7251685,37.7000562 68.1026966,38.2376966 C68.6908989,39.0938764 68.7313483,40.039382 68.7313483,40.3848876 C68.7313483,40.8011798 68.6706742,41.9185955 67.7959551,42.8236517" id="Fill-29"></path>
                          <polygon id="Fill-31" points="73.1878652 43.8704494 73.1878652 36.6940449 74.2041573 36.6940449 74.2041573 42.9957303 78.9721348 42.9957303 78.9721348 43.8704494"></polygon>
                          <path d="M89.6673034,39.0315169 C88.8953933,37.3747753 86.8526966,37.3848876 86.4448315,37.395 C86.1397753,37.4051124 84.848764,37.4758989 84.0144944,38.3101685 C83.8729213,38.4517416 83.5880899,38.7685955 83.4161798,39.2758989 C83.3032584,39.6011798 83.2526966,39.9787079 83.2526966,40.3242135 C83.2526966,40.5871348 83.2830337,41.3607303 83.7717978,42.0197191 C83.8729213,42.1545506 84.0246067,42.3348876 84.3414607,42.5607303 C84.7577528,42.8556742 85.4588764,43.1792697 86.648764,43.1792697 C86.8408989,43.1792697 87.3195506,43.1792697 87.857191,43.0376966 C88.8633708,42.7730899 89.5965169,42.1023034 89.8408989,41.0860112 C89.871236,40.9444382 89.9319101,40.6494944 89.9319101,40.2820787 C89.9319101,39.6719663 89.7701124,39.2455618 89.6673034,39.0315169 M90.0229213,42.8236517 C89.5257303,43.3427528 88.4268539,44.0641011 86.6285393,44.0641011 C86.4448315,44.0641011 86.0285393,44.0539888 85.5296629,43.9730899 C85.0425843,43.9023034 83.5880899,43.6360112 82.7538202,42.2961236 C82.2667416,41.5023034 82.2364045,40.6882584 82.2364045,40.3629775 C82.2364045,39.5405056 82.4504494,38.7163483 82.9577528,38.0775843 C83.0605618,37.9444382 83.1920225,37.7927528 83.4768539,37.5584831 C83.965618,37.1523034 84.951573,36.5219663 86.5678652,36.5219663 C86.8931461,36.5219663 87.8689888,36.550618 88.7925843,36.9787079 C89.3824719,37.253427 89.9521348,37.7000562 90.3279775,38.2376966 C90.9178652,39.0938764 90.9583146,40.039382 90.9583146,40.3848876 C90.9583146,40.8011798 90.8976404,41.9185955 90.0229213,42.8236517" id="Fill-33"></path>
                          <path d="M102.265787,43.8704494 L102.265787,42.8844944 C102.112416,43.0378652 101.96073,43.1794382 101.787135,43.3024719 C101.380955,43.585618 100.445562,44.0339326 99.1343258,44.0339326 C97.2028652,44.0339326 96.1663483,43.0378652 95.7298315,42.4361798 C95.4854494,42.1125843 95.0287079,41.3608989 95.0287079,40.2620225 C95.0287079,39.9165169 95.0775843,39.0721348 95.6169101,38.2597753 C95.7601685,38.0457303 95.9017416,37.8721348 96.0854494,37.7002247 C96.5725281,37.2417978 97.6191573,36.5221348 99.3163483,36.5221348 C99.7242135,36.5221348 100.700056,36.5507865 101.716348,37.08 C102.235449,37.3446067 102.518596,37.6193258 102.682079,37.8013483 C102.845562,37.9749438 102.916348,38.0558427 103.108483,38.4131461 L102.112416,38.7165169 C102.041629,38.6153933 101.940506,38.4417978 101.726461,38.2378652 C101.380955,37.924382 100.609045,37.3951685 99.3888202,37.3951685 C99.1646629,37.3951685 98.6067978,37.4153933 98.0169101,37.6193258 C96.8472472,38.0255056 96.1157865,38.9608989 96.1157865,40.221573 C96.1157865,40.8620225 96.3483708,41.5934831 96.7663483,42.0906742 C97.6090449,43.118764 98.9826404,43.1794382 99.3584831,43.1794382 C100.354551,43.1794382 101.471966,42.7530337 102.011292,41.8698876 C102.205112,41.5429213 102.245562,41.3002247 102.296124,40.9446067 L99.1343258,40.9446067 L99.1343258,40.088427 L103.150618,40.088427 L103.150618,43.8704494 L102.265787,43.8704494 Z" id="Fill-35"></path>
                          <polygon id="Fill-37" points="107.87191 43.8707865 108.908427 43.8707865 108.908427 36.694382 107.87191 36.694382"></polygon>
                          <polygon id="Fill-39" points="113.726966 43.8704494 113.726966 36.6940449 120.345506 36.6940449 120.345506 37.5788764 114.743258 37.5788764 114.743258 39.7125843 120.202247 39.7125843 120.202247 40.5670787 114.743258 40.5670787 114.743258 42.9873034 120.608427 42.9873034 120.608427 43.8704494"></polygon>
                          <path d="M131.432697,42.9058989 C130.793933,43.7991573 129.582135,43.9407303 129.319213,43.9727528 C129.15573,43.9929775 128.739438,44.0435393 128.281011,44.0435393 C128.078764,44.0435393 127.193933,44.0233146 126.432135,43.8294944 C126.268652,43.7890449 126.015843,43.7283708 125.660225,43.575 C125.282697,43.4132022 125.028202,43.2294944 124.906854,43.1384831 C124.520899,42.8435393 124.347303,42.580618 124.236067,42.4171348 L125.181573,42.0294944 C125.232135,42.0918539 125.272584,42.1424157 125.333258,42.2030899 C125.486629,42.3564607 125.822022,42.6210674 126.319213,42.8233146 C127.143371,43.1587079 128.119213,43.1688202 128.353483,43.1688202 C128.535506,43.1688202 129.614157,43.2008427 130.305169,42.6817416 C130.731573,42.3564607 130.793933,41.9081461 130.793933,41.7160112 C130.793933,41.2997191 130.557978,40.9946629 130.182135,40.8311798 C129.654607,40.5985955 128.414157,40.5261236 127.844494,40.4755618 C126.472584,40.3626404 125.801798,40.2918539 125.272584,39.8047753 C124.785506,39.3581461 124.763596,38.8491573 124.763596,38.6047753 C124.763596,37.6002809 125.456292,37.1418539 125.761348,36.9783708 C126.187753,36.7457865 126.971461,36.5115169 128.129326,36.5115169 C129.551798,36.5115169 130.406292,36.8570225 130.925393,37.1924157 C131.046742,37.2733146 131.149551,37.3441011 131.250674,37.4351124 C131.483258,37.6289326 131.656854,37.883427 131.717528,37.9542135 L130.782135,38.3300562 C130.731573,38.2794944 130.549551,38.0957865 130.345618,37.9542135 C129.949551,37.6794944 129.268652,37.3542135 128.139438,37.3542135 C127.407978,37.3542135 126.838315,37.4856742 126.573708,37.5884831 C125.953483,37.8210674 125.779888,38.2491573 125.779888,38.5542135 C125.779888,38.7075843 125.822022,38.8676966 125.902921,39.0025281 C126.157416,39.4087079 126.664719,39.4491573 127.081011,39.4997191 C127.874831,39.6008427 128.668652,39.6412921 129.460787,39.7323034 C130.569775,39.8654494 131.077079,40.1502809 131.422584,40.5766854 C131.779888,41.0351124 131.798427,41.4918539 131.798427,41.7058989 C131.798427,42.3143258 131.575955,42.7120787 131.432697,42.9058989" id="Fill-40"></path>
                      </g>
                      <mask id="mask-3" fill="white">
                          <use xlink:href="#path-2"></use>
                      </mask>
                      <use id="Clip-2" fill="url(#linearGradient-1)" xlink:href="#path-2"></use>
                  </g>
              </g>
          </g>
      </g>
    </g>
  </g>
</svg>